<?xml version="1.0" encoding="UTF-8" standalone="no"?><!DOCTYPE svg PUBLIC "-//W3C//DTD SVG 1.1//EN" "http://www.w3.org/Graphics/SVG/1.1/DTD/svg11.dtd"><svg width="100%" height="100%" viewBox="0 0 519 519" version="1.1" xmlns="http://www.w3.org/2000/svg" xmlns:xlink="http://www.w3.org/1999/xlink" xml:space="preserve" xmlns:serif="http://www.serif.com/" style="fill-rule:evenodd;clip-rule:evenodd;stroke-linejoin:round;stroke-miterlimit:2;"><rect id="chain-link" serif:id="chain link" x="0.195" y="0.15" width="518.4" height="518.4" style="fill:none;"/><g id="posts"><path d="M92.712,76.865l0,382.065l-19.579,0l0,-382.065l19.579,0Zm348.43,0l0,382.065l-19.578,0l0,-382.065l19.578,0Z" style="fill:url(#_Linear1);"/><path d="M73.133,76.865l-7.683,8.588l0,373.477l7.683,0l0,-382.065Zm348.431,0l-7.683,8.588l0,373.477l7.683,0l0,-382.065Z" style="fill:url(#_Linear2);"/></g><g id="rails"><path d="M47.183,149.811l0,13.328l419.386,0l0,-13.328l-419.386,0Zm0,256.263l0,13.329l419.386,0l0,-13.329l-419.386,0Z" style="fill:url(#_Linear3);"/><path d="M47.183,149.811l0,13.328l-5.038,1.985l0,-13.329l5.038,-1.984Zm0,256.263l0,13.329l-5.038,1.984l0,-13.328l5.038,-1.985Z" style="fill:url(#_Linear4);"/><path d="M42.145,165.124l5.038,-1.985l419.386,0l-5.038,1.985l-419.386,0Zm0,256.263l5.038,-1.984l419.386,0l-5.038,1.984l-419.386,0Z" style="fill:url(#_Linear5);"/></g><g id="mesh"><path d="M209.073,94.589l3.745,-5.33c0.367,-0.48 0.896,-0.818 1.482,-0.892c0.339,-0.043 0.423,-0.009 0.534,0c0.473,0.08 0.922,0.283 1.254,0.619c0.112,0.113 0.132,0.148 0.228,0.273l3.734,5.314l15.576,-0.022l3.718,-5.292c0.096,-0.125 0.117,-0.16 0.228,-0.273c0.458,-0.463 1.108,-0.676 1.788,-0.619c0.474,0.08 0.923,0.283 1.255,0.619c0.111,0.113 0.132,0.148 0.228,0.273l3.707,5.276l15.629,-0.022l3.691,-5.254c0.097,-0.125 0.117,-0.16 0.229,-0.273c0.457,-0.463 1.107,-0.676 1.787,-0.619c0.917,0.154 1.086,0.374 1.483,0.892l3.681,5.239l15.681,-0.023l3.666,-5.216c0.096,-0.125 0.117,-0.16 0.228,-0.273c0.458,-0.463 1.108,-0.676 1.788,-0.619c0.916,0.154 1.086,0.374 1.483,0.892l3.655,5.201l15.734,-0.022l3.639,-5.179c0.096,-0.125 0.116,-0.16 0.228,-0.273c0.415,-0.42 0.985,-0.634 1.61,-0.634c0.158,0.013 0.198,0.012 0.353,0.044c0.523,0.111 0.979,0.435 1.308,0.863l3.628,5.164l15.787,-0.023l3.612,-5.141c0.33,-0.43 0.787,-0.753 1.307,-0.863c0.335,-0.07 0.421,-0.044 0.532,-0.044c0.54,0.045 1.058,0.256 1.432,0.634c0.111,0.113 0.132,0.148 0.228,0.273l3.602,5.126l15.84,-0.023l3.586,-5.103c0.329,-0.43 0.787,-0.753 1.307,-0.863c0.334,-0.07 0.42,-0.044 0.531,-0.044c0.54,0.045 1.059,0.256 1.432,0.634c0.112,0.113 0.132,0.148 0.228,0.273l3.576,5.088l15.892,-0.022l3.56,-5.066c0.096,-0.125 0.117,-0.16 0.228,-0.273c0.415,-0.42 0.986,-0.634 1.611,-0.634c0.54,0.045 1.058,0.256 1.432,0.634c0.111,0.113 0.132,0.148 0.228,0.273l3.549,5.051l15.945,-0.023l3.533,-5.028c0.097,-0.125 0.117,-0.16 0.229,-0.273c0.415,-0.42 0.985,-0.634 1.61,-0.634c0.158,0.013 0.198,0.012 0.353,0.044c0.523,0.111 0.979,0.435 1.307,0.863l3.523,5.013l15.998,-0.023l3.507,-4.99c0.33,-0.43 0.787,-0.753 1.307,-0.863c0.335,-0.07 0.421,-0.044 0.531,-0.044c0.158,0.013 0.198,0.012 0.354,0.044c0.523,0.111 0.978,0.435 1.307,0.863l3.496,4.975l10.534,-0.015c0.22,0.035 0.44,0.07 0.66,0.104c0.522,0.265 0.713,0.285 1.071,0.775c0.655,0.899 0.448,2.319 -0.469,2.988c-0.491,0.357 -0.679,0.317 -1.256,0.41l-7.538,0.01l6.765,9.628c0.477,0.742 0.484,1.706 0,2.459l-11.858,16.876l11.858,16.875c0.477,0.742 0.492,1.694 0,2.459l-11.858,16.876l11.858,16.876c0.477,0.741 0.484,1.705 0,2.458l-11.858,16.876l11.858,16.876c0.477,0.741 0.484,1.706 0,2.458l-11.858,16.876l11.858,16.876c0.477,0.742 0.492,1.694 0,2.459l-11.858,16.875l11.858,16.876c0.477,0.742 0.484,1.706 0,2.459l-11.858,16.876l11.858,16.875c0.477,0.742 0.492,1.694 0,2.459l-11.858,16.876l11.858,16.876c0.477,0.741 0.484,1.705 0,2.458l-11.858,16.876l11.858,16.876c0.477,0.741 0.484,1.705 0,2.458l-11.858,16.876l11.858,16.876c0.477,0.742 0.492,1.694 0,2.458l-7.548,10.742l8.315,-0.012c0.22,0.035 0.44,0.07 0.66,0.104c0.522,0.265 0.713,0.285 1.071,0.775c0.65,0.892 0.455,2.314 -0.469,2.988c-0.491,0.357 -0.679,0.317 -1.256,0.41l-11.329,0.016l-2.707,3.853c-0.333,0.434 -0.433,0.473 -0.647,0.602c-0.812,0.489 -1.947,0.356 -2.624,-0.329c-0.111,-0.113 -0.132,-0.148 -0.228,-0.273l-2.699,-3.841l-17.648,0.026l-2.681,3.815c-0.333,0.434 -0.432,0.473 -0.647,0.602c-0.811,0.489 -1.947,0.356 -2.623,-0.329c-0.112,-0.113 -0.132,-0.148 -0.229,-0.273l-2.672,-3.803l-17.701,0.025l-2.654,3.778c-0.333,0.434 -0.432,0.473 -0.647,0.602c-0.812,0.489 -1.947,0.356 -2.624,-0.329c-0.111,-0.113 -0.132,-0.148 -0.228,-0.273l-2.646,-3.765l-17.754,0.025l-2.628,3.74c-0.333,0.434 -0.432,0.473 -0.647,0.602c-0.811,0.489 -1.946,0.356 -2.623,-0.329c-0.112,-0.113 -0.132,-0.148 -0.228,-0.273l-2.62,-3.728l-17.807,0.026l-2.601,3.702c-0.333,0.434 -0.432,0.473 -0.647,0.602c-0.812,0.489 -1.947,0.356 -2.624,-0.329c-0.111,-0.113 -0.132,-0.148 -0.228,-0.273l-2.593,-3.69l-17.86,0.025l-2.574,3.665c-0.333,0.434 -0.433,0.473 -0.648,0.602c-0.811,0.489 -1.946,0.356 -2.623,-0.329c-0.112,-0.113 -0.132,-0.148 -0.228,-0.273l-2.567,-3.652l-17.913,0.025l-2.548,3.627c-0.333,0.434 -0.433,0.473 -0.647,0.602c-0.812,0.489 -1.947,0.356 -2.624,-0.329c-0.111,-0.113 -0.132,-0.148 -0.228,-0.273l-2.54,-3.615l-17.966,0.026l-2.522,3.589c-0.333,0.434 -0.432,0.473 -0.647,0.602c-0.811,0.489 -1.947,0.356 -2.623,-0.329c-0.112,-0.113 -0.132,-0.148 -0.229,-0.273l-2.513,-3.577l-18.019,0.025l-2.495,3.552c-0.333,0.434 -0.433,0.473 -0.647,0.602c-0.811,0.488 -1.947,0.356 -2.624,-0.329c-0.111,-0.113 -0.132,-0.148 -0.228,-0.273l-2.487,-3.54l-18.072,0.026l-2.469,3.514c-0.333,0.434 -0.432,0.473 -0.647,0.602c-0.811,0.489 -1.946,0.356 -2.623,-0.329c-0.112,-0.113 -0.132,-0.148 -0.228,-0.273l-2.461,-3.502l-18.125,0.026l-2.442,3.476c-0.333,0.434 -0.432,0.473 -0.647,0.602c-0.812,0.489 -1.947,0.356 -2.624,-0.329c-0.111,-0.113 -0.132,-0.148 -0.228,-0.273l-2.434,-3.464l-18.178,0.026l-2.416,3.438c-0.333,0.434 -0.432,0.473 -0.647,0.602c-0.811,0.488 -1.946,0.356 -2.623,-0.329c-0.112,-0.113 -0.132,-0.148 -0.228,-0.273l-2.408,-3.427l-18.231,0.026l-2.389,3.401c-0.333,0.434 -0.432,0.473 -0.647,0.602c-0.812,0.489 -1.947,0.356 -2.624,-0.329c-0.111,-0.113 -0.132,-0.148 -0.228,-0.273l-2.381,-3.389l-18.284,0.026l-2.362,3.363c-0.333,0.434 -0.433,0.473 -0.648,0.602c-0.811,0.488 -1.946,0.356 -2.623,-0.329c-0.112,-0.113 -0.132,-0.148 -0.228,-0.273l-2.355,-3.351l-18.336,0.026l-2.337,3.325c-0.333,0.434 -0.432,0.473 -0.647,0.602c-0.812,0.489 -1.947,0.356 -2.624,-0.329c-0.111,-0.113 -0.132,-0.148 -0.228,-0.273l-2.328,-3.314l-18.389,0.026l-2.31,3.288c-0.333,0.434 -0.433,0.473 -0.648,0.602c-0.811,0.489 -1.946,0.356 -2.623,-0.329c-0.112,-0.113 -0.132,-0.148 -0.228,-0.273l-2.302,-3.276l-9.209,0.013c-0.578,-0.091 -0.766,-0.05 -1.257,-0.407c-1.054,-0.763 -1.139,-2.633 -0.005,-3.459c0.49,-0.358 0.679,-0.318 1.256,-0.41l6.213,-0.009l-7.959,-11.328c-0.478,-0.741 -0.492,-1.693 0,-2.458l11.858,-16.876l-11.858,-16.876c-0.478,-0.741 -0.485,-1.705 0,-2.458l11.858,-16.876l-11.858,-16.876c-0.478,-0.741 -0.485,-1.705 0,-2.458l11.858,-16.876l-11.858,-16.876c-0.478,-0.742 -0.492,-1.694 0,-2.459l11.858,-16.875l-11.858,-16.876c-0.478,-0.742 -0.485,-1.706 0,-2.459l11.858,-16.876l-11.858,-16.875c-0.478,-0.742 -0.485,-1.706 0,-2.459l11.858,-16.876l-11.858,-16.876c-0.478,-0.741 -0.492,-1.694 0,-2.458l11.858,-16.876l-11.858,-16.876c-0.478,-0.742 -0.492,-1.694 0,-2.458l11.858,-16.876l-11.858,-16.876c-0.478,-0.742 -0.485,-1.706 0,-2.459l11.858,-16.875l-11.858,-16.876c-0.478,-0.742 -0.492,-1.694 0,-2.459l6.351,-9.039l-4.599,0.007c-0.578,-0.091 -0.766,-0.051 -1.257,-0.407c-1.073,-0.777 -1.132,-2.639 -0.005,-3.459c0.49,-0.358 0.679,-0.318 1.256,-0.41l7.613,-0.011l3.904,-5.556c0.096,-0.125 0.116,-0.16 0.228,-0.273c0.457,-0.463 1.108,-0.676 1.788,-0.619c0.916,0.154 1.086,0.374 1.483,0.892l3.892,5.54l15.258,-0.022l3.877,-5.518c0.368,-0.48 0.897,-0.818 1.483,-0.892c0.339,-0.043 0.423,-0.009 0.533,0c0.474,0.08 0.923,0.283 1.255,0.619c0.111,0.113 0.132,0.148 0.228,0.273l3.866,5.502l15.311,-0.022l3.851,-5.48c0.367,-0.48 0.896,-0.818 1.483,-0.892c0.339,-0.043 0.422,-0.009 0.533,0c0.916,0.154 1.086,0.374 1.483,0.892l3.839,5.464l15.364,-0.021l3.824,-5.443c0.096,-0.125 0.117,-0.16 0.228,-0.273c0.458,-0.463 1.108,-0.676 1.788,-0.619c0.917,0.154 1.086,0.374 1.483,0.892l3.813,5.427l15.417,-0.022l3.798,-5.405c0.096,-0.125 0.116,-0.16 0.228,-0.273c0.457,-0.463 1.108,-0.676 1.788,-0.619c0.474,0.08 0.922,0.283 1.254,0.619c0.112,0.113 0.132,0.148 0.228,0.273l3.787,5.389l15.47,-0.022l3.771,-5.367c0.096,-0.125 0.117,-0.16 0.228,-0.273c0.458,-0.463 1.108,-0.676 1.788,-0.619c0.917,0.154 1.086,0.374 1.483,0.892l3.76,5.352l15.523,-0.022Zm-151.829,353.21l8.814,-12.544l-10.65,-15.156c-3.55,5.052 -7.1,10.104 -10.65,15.156l8.818,12.549l3.668,-0.005Zm5.231,-0.007l12.38,-0.018l-6.184,-8.8l-6.196,8.818Zm21.322,-0.031l8.788,-12.506l-10.65,-15.156c-3.55,5.052 -7.1,10.104 -10.65,15.156l8.791,12.512l3.721,-0.006Zm5.231,-0.007l12.327,-0.017l-6.157,-8.763l-6.17,8.78Zm21.322,-0.03l8.761,-12.469l-10.65,-15.156c-3.55,5.052 -7.1,10.104 -10.65,15.156l8.765,12.474l3.774,-0.005Zm5.231,-0.008l12.274,-0.017l-6.131,-8.725l-6.143,8.742Zm21.322,-0.03l8.735,-12.431l-10.65,-15.156c-3.55,5.052 -7.1,10.104 -10.65,15.156l8.738,12.437l3.827,-0.006Zm5.231,-0.007l12.221,-0.018l-6.104,-8.687l-6.117,8.705Zm21.322,-0.031l8.708,-12.393l-10.65,-15.156c-3.55,5.052 -7.1,10.104 -10.65,15.156l8.712,12.399l3.88,-0.006Zm5.231,-0.007l12.168,-0.017l-6.078,-8.65l-6.09,8.667Zm21.322,-0.03l8.682,-12.356l-10.65,-15.156c-3.55,5.052 -7.1,10.104 -10.65,15.156l8.685,12.361l3.933,-0.005Zm5.231,-0.008l12.115,-0.017l-6.051,-8.612l-6.064,8.629Zm21.322,-0.03l8.655,-12.318l-10.65,-15.156c-3.55,5.052 -7.1,10.104 -10.65,15.156l8.659,12.324l3.986,-0.006Zm5.231,-0.007l12.062,-0.018l-6.025,-8.574l-6.037,8.592Zm21.321,-0.031l8.63,-12.28l-10.651,-15.156c-3.55,5.052 -7.099,10.104 -10.649,15.156l8.633,12.286l4.037,-0.006Zm5.232,-0.007l12.009,-0.017l-5.998,-8.537l-6.011,8.554Zm21.321,-0.03l8.603,-12.243l-10.65,-15.156c-3.55,5.052 -7.1,10.104 -10.65,15.156l8.607,12.248l4.09,-0.005Zm5.232,-0.008l11.956,-0.017l-5.972,-8.499l-5.984,8.516Zm21.321,-0.03l8.576,-12.205l-10.65,-15.156c-3.55,5.052 -7.1,10.104 -10.65,15.156l8.581,12.211l4.143,-0.006Zm5.232,-0.008l11.903,-0.016l-5.945,-8.462l-5.958,8.478Zm21.322,-0.03l8.549,-12.167l-10.65,-15.156c-3.55,5.052 -7.1,10.104 -10.65,15.156l8.554,12.173l4.197,-0.006Zm5.231,-0.007l11.85,-0.017l-5.919,-8.424l-5.931,8.441Zm21.321,-0.031l8.523,-12.129l-10.649,-15.156c-3.551,5.052 -7.101,10.104 -10.651,15.156l8.528,12.136l4.249,-0.007Zm5.232,-0.007l11.797,-0.017l-5.892,-8.386l-5.905,8.403Zm21.321,-0.03l8.497,-12.092l-10.65,-15.156c-3.55,5.052 -7.1,10.104 -10.65,15.156l8.501,12.098l4.302,-0.006Zm5.232,-0.008l11.745,-0.016l-5.867,-8.349l-5.878,8.365Zm21.321,-0.03l8.47,-12.054l-10.65,-15.156c-3.55,5.052 -7.1,10.104 -10.65,15.156l8.475,12.06l4.355,-0.006Zm5.232,-0.007l11.692,-0.017l-5.84,-8.311l-5.852,8.328Zm21.321,-0.031l8.444,-12.016l-10.65,-15.156c-3.55,5.052 -7.1,10.104 -10.65,15.156l8.448,12.023l4.408,-0.007Zm5.232,-0.007l11.639,-0.017l-5.814,-8.273l-5.825,8.29Zm21.321,-0.03l8.417,-11.979l-10.65,-15.156c-3.55,5.052 -7.1,10.104 -10.65,15.156l8.422,11.985l4.461,-0.006Zm-158.237,-30.084l10.109,14.386l10.109,-14.386l-10.109,-14.386l-10.109,14.386Zm-238.738,0l10.108,14.386l10.109,-14.386l-10.109,-14.386l-10.108,14.386Zm26.526,0l10.109,14.386l10.109,-14.386l-10.109,-14.386l-10.109,14.386Zm132.632,0l10.109,14.386l10.109,-14.386l-10.109,-14.386l-10.109,14.386Zm53.053,0l10.109,14.386l10.109,-14.386l-10.109,-14.386l-10.109,14.386Zm-132.632,0l10.109,14.386l10.109,-14.386l-10.109,-14.386l-10.109,14.386Zm212.212,0l10.109,14.386l10.109,-14.386l-10.109,-14.386l-10.109,14.386Zm26.526,0l10.109,14.386l10.109,-14.386l-10.109,-14.386l-10.109,14.386Zm-53.053,0l10.109,14.386l10.109,-14.386l-10.109,-14.386l-10.109,14.386Zm-79.579,0l10.109,14.386l10.109,-14.386l-10.109,-14.386l-10.109,14.386Zm185.685,0l10.109,14.386l10.109,-14.386l-10.109,-14.386l-10.109,14.386Zm-26.526,0l10.109,14.386l10.109,-14.386l-10.109,-14.386l-10.109,14.386Zm-291.791,0l10.108,14.386l10.109,-14.386l-10.109,-14.386l-10.108,14.386Zm53.052,0l10.109,14.386l10.109,-14.386l-10.109,-14.386l-10.109,14.386Zm26.527,0l10.109,14.386l10.109,-14.386l-10.109,-14.386l-10.109,14.386Zm-119.91,-18.105l10.65,15.156l10.65,-15.156l-10.65,-15.156c-3.55,5.052 -7.1,10.104 -10.65,15.156Zm-26.527,0l10.65,15.156l10.65,-15.156l-10.65,-15.156c-3.55,5.052 -7.1,10.104 -10.65,15.156Zm265.265,0l10.65,15.156l10.65,-15.156l-10.65,-15.156c-3.55,5.052 -7.1,10.104 -10.65,15.156Zm-53.053,0l10.65,15.156l10.65,-15.156l-10.65,-15.156c-3.55,5.052 -7.1,10.104 -10.65,15.156Zm-53.053,0l10.65,15.156l10.65,-15.156l-10.65,-15.156c-3.55,5.052 -7.1,10.104 -10.65,15.156Zm-106.106,0l10.65,15.156l10.65,-15.156l-10.65,-15.156c-3.55,5.052 -7.1,10.104 -10.65,15.156Zm132.633,0l10.649,15.156l10.651,-15.156l-10.651,-15.156c-3.55,5.052 -7.099,10.104 -10.649,15.156Zm53.052,0l10.65,15.156l10.65,-15.156l-10.65,-15.156c-3.55,5.052 -7.1,10.104 -10.65,15.156Zm159.159,0l10.65,15.156l10.65,-15.156l-10.65,-15.156c-3.55,5.052 -7.1,10.104 -10.65,15.156Zm-265.264,0l10.65,15.156l10.65,-15.156l-10.65,-15.156c-3.55,5.052 -7.1,10.104 -10.65,15.156Zm238.738,0l10.65,15.156l10.65,-15.156l-10.65,-15.156c-3.55,5.052 -7.1,10.104 -10.65,15.156Zm-79.58,0l10.651,15.156l10.649,-15.156l-10.649,-15.156c-3.551,5.052 -7.101,10.104 -10.651,15.156Zm-185.685,0l10.65,15.156l10.65,-15.156l-10.65,-15.156c-3.55,5.052 -7.1,10.104 -10.65,15.156Zm238.738,0l10.65,15.156l10.65,-15.156l-10.65,-15.156c-3.55,5.052 -7.1,10.104 -10.65,15.156Zm-265.264,0l10.65,15.156l10.65,-15.156l-10.65,-15.156c-3.55,5.052 -7.1,10.104 -10.65,15.156Zm238.738,0l10.65,15.156l10.65,-15.156l-10.65,-15.156c-3.55,5.052 -7.1,10.104 -10.65,15.156Zm-65.775,-18.105l10.109,14.386l10.109,-14.386l-10.109,-14.386l-10.109,14.386Zm-238.738,0l10.108,14.386l10.109,-14.386l-10.109,-14.386l-10.108,14.386Zm53.053,0l10.108,14.386l10.109,-14.386l-10.109,-14.386l-10.108,14.386Zm291.791,0l10.109,14.386l10.109,-14.386l-10.109,-14.386l-10.109,14.386Zm-265.265,0l10.109,14.386l10.109,-14.386l-10.109,-14.386l-10.109,14.386Zm238.738,0l10.109,14.386l10.109,-14.386l-10.109,-14.386l-10.109,14.386Zm-26.526,0l10.109,14.386l10.109,-14.386l-10.109,-14.386l-10.109,14.386Zm-132.633,0l10.109,14.386l10.109,-14.386l-10.109,-14.386l-10.109,14.386Zm-26.526,0l10.109,14.386l10.109,-14.386l-10.109,-14.386l-10.109,14.386Zm-26.527,0l10.109,14.386l10.109,-14.386l-10.109,-14.386l-10.109,14.386Zm-79.579,0l10.109,14.386l10.109,-14.386l-10.109,-14.386l-10.109,14.386Zm344.844,0l10.109,14.386l10.109,-14.386l-10.109,-14.386l-10.109,14.386Zm-185.685,0l10.109,14.386l10.109,-14.386l-10.109,-14.386l-10.109,14.386Zm79.579,0l10.109,14.386l10.109,-14.386l-10.109,-14.386l-10.109,14.386Zm-53.053,0l10.109,14.386l10.109,-14.386l-10.109,-14.386l-10.109,14.386Zm-199.489,-18.105l10.65,15.156l10.65,-15.156l-10.65,-15.156c-3.55,5.052 -7.1,10.104 -10.65,15.156Zm-26.527,0l10.65,15.156l10.65,-15.156l-10.65,-15.156c-3.55,5.052 -7.1,10.104 -10.65,15.156Zm397.897,0l10.65,15.156l10.65,-15.156l-10.65,-15.156c-3.55,5.052 -7.1,10.104 -10.65,15.156Zm-79.579,0l10.65,15.156l10.65,-15.156l-10.65,-15.156c-3.55,5.052 -7.1,10.104 -10.65,15.156Zm-26.527,0l10.651,15.156l10.649,-15.156l-10.649,-15.156c-3.551,5.052 -7.101,10.104 -10.651,15.156Zm-185.685,0l10.65,15.156l10.65,-15.156l-10.65,-15.156c-3.55,5.052 -7.1,10.104 -10.65,15.156Zm265.265,0l10.65,15.156l10.65,-15.156l-10.65,-15.156c-3.55,5.052 -7.1,10.104 -10.65,15.156Zm-26.527,0l10.65,15.156l10.65,-15.156l-10.65,-15.156c-3.55,5.052 -7.1,10.104 -10.65,15.156Zm-106.106,0l10.65,15.156l10.65,-15.156l-10.65,-15.156c-3.55,5.052 -7.1,10.104 -10.65,15.156Zm-53.052,0l10.649,15.156l10.651,-15.156l-10.651,-15.156c-3.55,5.052 -7.099,10.104 -10.649,15.156Zm79.579,0l10.65,15.156l10.65,-15.156l-10.65,-15.156c-3.55,5.052 -7.1,10.104 -10.65,15.156Zm-185.685,0l10.65,15.156l10.65,-15.156l-10.65,-15.156c-3.55,5.052 -7.1,10.104 -10.65,15.156Zm53.053,0l10.65,15.156l10.65,-15.156l-10.65,-15.156c-3.55,5.052 -7.1,10.104 -10.65,15.156Zm79.579,0l10.65,15.156l10.65,-15.156l-10.65,-15.156c-3.55,5.052 -7.1,10.104 -10.65,15.156Zm-159.159,0l10.65,15.156l10.65,-15.156l-10.65,-15.156c-3.55,5.052 -7.1,10.104 -10.65,15.156Zm106.106,0l10.65,15.156l10.65,-15.156l-10.65,-15.156c-3.55,5.052 -7.1,10.104 -10.65,15.156Zm93.384,-18.105l10.109,14.386l10.109,-14.386l-10.109,-14.386l-10.109,14.386Zm-238.738,0l10.108,14.386l10.109,-14.386l-10.109,-14.386l-10.108,14.386Zm159.158,0l10.109,14.386l10.109,-14.386l-10.109,-14.386l-10.109,14.386Zm-26.526,0l10.109,14.386l10.109,-14.386l-10.109,-14.386l-10.109,14.386Zm238.738,0l10.109,14.386l10.109,-14.386l-10.109,-14.386l-10.109,14.386Zm-159.159,0l10.109,14.386l10.109,-14.386l-10.109,-14.386l-10.109,14.386Zm-159.159,0l10.109,14.386l10.109,-14.386l-10.109,-14.386l-10.109,14.386Zm26.527,0l10.109,14.386l10.109,-14.386l-10.109,-14.386l-10.109,14.386Zm-53.053,0l10.109,14.386l10.109,-14.386l-10.109,-14.386l-10.109,14.386Zm79.579,0l10.109,14.386l10.109,-14.386l-10.109,-14.386l-10.109,14.386Zm79.58,0l10.109,14.386l10.109,-14.386l-10.109,-14.386l-10.109,14.386Zm159.159,0l10.109,14.386l10.109,-14.386l-10.109,-14.386l-10.109,14.386Zm-26.527,0l10.109,14.386l10.109,-14.386l-10.109,-14.386l-10.109,14.386Zm-26.526,0l10.109,14.386l10.109,-14.386l-10.109,-14.386l-10.109,14.386Zm-26.527,0l10.109,14.386l10.109,-14.386l-10.109,-14.386l-10.109,14.386Zm-252.542,-18.105l10.65,15.156l10.65,-15.156l-10.65,-15.157c-3.55,5.053 -7.1,10.105 -10.65,15.157Zm-26.527,0l10.65,15.156l10.65,-15.156l-10.65,-15.157c-3.55,5.053 -7.1,10.105 -10.65,15.157Zm318.318,0l10.65,15.156l10.65,-15.156l-10.65,-15.157c-3.55,5.053 -7.1,10.105 -10.65,15.157Zm-26.527,0l10.651,15.156l10.649,-15.156l-10.649,-15.157c-3.551,5.053 -7.101,10.105 -10.651,15.157Zm-212.211,0l10.65,15.156l10.65,-15.156l-10.65,-15.157c-3.55,5.053 -7.1,10.105 -10.65,15.157Zm26.526,0l10.65,15.156l10.65,-15.156l-10.65,-15.157c-3.55,5.053 -7.1,10.105 -10.65,15.157Zm238.738,0l10.65,15.156l10.65,-15.156l-10.65,-15.157c-3.55,5.053 -7.1,10.105 -10.65,15.157Zm-291.791,0l10.65,15.156l10.65,-15.156l-10.65,-15.157c-3.55,5.053 -7.1,10.105 -10.65,15.157Zm159.159,0l10.65,15.156l10.65,-15.156l-10.65,-15.157c-3.55,5.053 -7.1,10.105 -10.65,15.157Zm26.526,0l10.65,15.156l10.65,-15.156l-10.65,-15.157c-3.55,5.053 -7.1,10.105 -10.65,15.157Zm-79.579,0l10.65,15.156l10.65,-15.156l-10.65,-15.157c-3.55,5.053 -7.1,10.105 -10.65,15.157Zm238.738,0l10.65,15.156l10.65,-15.156l-10.65,-15.157c-3.55,5.053 -7.1,10.105 -10.65,15.157Zm-212.211,0l10.649,15.156l10.651,-15.156l-10.651,-15.157c-3.55,5.053 -7.099,10.105 -10.649,15.157Zm-53.053,0l10.65,15.156l10.65,-15.156l-10.65,-15.157c-3.55,5.053 -7.1,10.105 -10.65,15.157Zm132.632,0l10.65,15.156l10.65,-15.156l-10.65,-15.157c-3.55,5.053 -7.1,10.105 -10.65,15.157Zm106.106,0l10.65,15.156l10.65,-15.156l-10.65,-15.157c-3.55,5.053 -7.1,10.105 -10.65,15.157Zm-118.828,-18.105l10.109,14.386l10.109,-14.386l-10.109,-14.387l-10.109,14.387Zm-238.738,0l10.108,14.386l10.109,-14.386l-10.109,-14.387l-10.108,14.387Zm371.37,0l10.109,14.386l10.109,-14.386l-10.109,-14.387l-10.109,14.387Zm-344.844,0l10.109,14.386l10.109,-14.386l-10.109,-14.387l-10.109,14.387Zm318.318,0l10.109,14.386l10.109,-14.386l-10.109,-14.387l-10.109,14.387Zm-212.212,0l10.109,14.386l10.109,-14.386l-10.109,-14.387l-10.109,14.387Zm-79.58,0l10.109,14.386l10.109,-14.386l-10.109,-14.387l-10.109,14.387Zm53.053,0l10.109,14.386l10.109,-14.386l-10.109,-14.387l-10.109,14.387Zm212.212,0l10.109,14.386l10.109,-14.386l-10.109,-14.387l-10.109,14.387Zm-159.159,0l10.109,14.386l10.109,-14.386l-10.109,-14.387l-10.109,14.387Zm53.053,0l10.109,14.386l10.109,-14.386l-10.109,-14.387l-10.109,14.387Zm-26.526,0l10.109,14.386l10.109,-14.386l-10.109,-14.387l-10.109,14.387Zm-106.106,0l10.109,14.386l10.109,-14.386l-10.109,-14.387l-10.109,14.387Zm212.212,0l10.109,14.386l10.109,-14.386l-10.109,-14.387l-10.109,14.387Zm-26.527,0l10.109,14.386l10.109,-14.386l-10.109,-14.387l-10.109,14.387Zm-252.542,-18.106l10.65,15.157l10.65,-15.157l-10.65,-15.156c-3.55,5.052 -7.1,10.104 -10.65,15.156Zm-26.527,0l10.65,15.157l10.65,-15.157l-10.65,-15.156c-3.55,5.052 -7.1,10.104 -10.65,15.156Zm159.159,0l10.65,15.157l10.65,-15.157l-10.65,-15.156c-3.55,5.052 -7.1,10.104 -10.65,15.156Zm26.527,0l10.649,15.157l10.651,-15.157l-10.651,-15.156c-3.55,5.052 -7.099,10.104 -10.649,15.156Zm53.052,0l10.65,15.157l10.65,-15.157l-10.65,-15.156c-3.55,5.052 -7.1,10.104 -10.65,15.156Zm-185.685,0l10.65,15.157l10.65,-15.157l-10.65,-15.156c-3.55,5.052 -7.1,10.104 -10.65,15.156Zm238.738,0l10.651,15.157l10.649,-15.157l-10.649,-15.156c-3.551,5.052 -7.101,10.104 -10.651,15.156Zm-212.211,0l10.65,15.157l10.65,-15.157l-10.65,-15.156c-3.55,5.052 -7.1,10.104 -10.65,15.156Zm132.632,0l10.65,15.157l10.65,-15.157l-10.65,-15.156c-3.55,5.052 -7.1,10.104 -10.65,15.156Zm106.106,0l10.65,15.157l10.65,-15.157l-10.65,-15.156c-3.55,5.052 -7.1,10.104 -10.65,15.156Zm79.579,0l10.65,15.157l10.65,-15.157l-10.65,-15.156c-3.55,5.052 -7.1,10.104 -10.65,15.156Zm-132.632,0l10.65,15.157l10.65,-15.157l-10.65,-15.156c-3.55,5.052 -7.1,10.104 -10.65,15.156Zm-132.632,0l10.65,15.157l10.65,-15.157l-10.65,-15.156c-3.55,5.052 -7.1,10.104 -10.65,15.156Zm238.738,0l10.65,15.157l10.65,-15.157l-10.65,-15.156c-3.55,5.052 -7.1,10.104 -10.65,15.156Zm-26.527,0l10.65,15.157l10.65,-15.157l-10.65,-15.156c-3.55,5.052 -7.1,10.104 -10.65,15.156Zm-238.738,0l10.65,15.157l10.65,-15.157l-10.65,-15.156c-3.55,5.052 -7.1,10.104 -10.65,15.156Zm146.437,-18.105l10.109,14.387l10.109,-14.387l-10.109,-14.386l-10.109,14.386Zm-238.738,0l10.108,14.387l10.109,-14.387l-10.109,-14.386l-10.108,14.386Zm371.37,0l10.109,14.387l10.109,-14.387l-10.109,-14.386l-10.109,14.386Zm-265.265,0l10.109,14.387l10.109,-14.387l-10.109,-14.386l-10.109,14.386Zm238.739,0l10.109,14.387l10.109,-14.387l-10.109,-14.386l-10.109,14.386Zm-132.633,0l10.109,14.387l10.109,-14.387l-10.109,-14.386l-10.109,14.386Zm-26.526,0l10.109,14.387l10.109,-14.387l-10.109,-14.386l-10.109,14.386Zm-26.527,0l10.109,14.387l10.109,-14.387l-10.109,-14.386l-10.109,14.386Zm132.633,0l10.109,14.387l10.109,-14.387l-10.109,-14.386l-10.109,14.386Zm-238.739,0l10.109,14.387l10.109,-14.387l-10.109,-14.386l-10.109,14.386Zm-26.526,0l10.109,14.387l10.109,-14.387l-10.109,-14.386l-10.109,14.386Zm53.053,0l10.109,14.387l10.109,-14.387l-10.109,-14.386l-10.109,14.386Zm238.738,0l10.109,14.387l10.109,-14.387l-10.109,-14.386l-10.109,14.386Zm-53.053,0l10.109,14.387l10.109,-14.387l-10.109,-14.386l-10.109,14.386Zm-132.632,0l10.109,14.387l10.109,-14.387l-10.109,-14.386l-10.109,14.386Zm-119.91,-18.105l10.65,15.156l10.65,-15.156l-10.65,-15.156c-3.55,5.052 -7.1,10.104 -10.65,15.156Zm-26.527,0l10.65,15.156l10.65,-15.156l-10.65,-15.156c-3.55,5.052 -7.1,10.104 -10.65,15.156Zm344.844,0l10.65,15.156l10.65,-15.156l-10.65,-15.156c-3.55,5.052 -7.1,10.104 -10.65,15.156Zm-291.791,0l10.65,15.156l10.65,-15.156l-10.65,-15.156c-3.55,5.052 -7.1,10.104 -10.65,15.156Zm185.685,0l10.65,15.156l10.65,-15.156l-10.65,-15.156c-3.55,5.052 -7.1,10.104 -10.65,15.156Zm-106.105,0l10.65,15.156l10.65,-15.156l-10.65,-15.156c-3.55,5.052 -7.1,10.104 -10.65,15.156Zm265.264,0l10.65,15.156l10.65,-15.156l-10.65,-15.156c-3.55,5.052 -7.1,10.104 -10.65,15.156Zm-318.317,0l10.65,15.156l10.65,-15.156l-10.65,-15.156c-3.55,5.052 -7.1,10.104 -10.65,15.156Zm106.106,0l10.649,15.156l10.651,-15.156l-10.651,-15.156c-3.55,5.052 -7.099,10.104 -10.649,15.156Zm106.105,0l10.651,15.156l10.649,-15.156l-10.649,-15.156c-3.551,5.052 -7.101,10.104 -10.651,15.156Zm-132.632,0l10.65,15.156l10.65,-15.156l-10.65,-15.156c-3.55,5.052 -7.1,10.104 -10.65,15.156Zm53.053,0l10.65,15.156l10.65,-15.156l-10.65,-15.156c-3.55,5.052 -7.1,10.104 -10.65,15.156Zm53.053,0l10.65,15.156l10.65,-15.156l-10.65,-15.156c-3.55,5.052 -7.1,10.104 -10.65,15.156Zm-159.159,0l10.65,15.156l10.65,-15.156l-10.65,-15.156c-3.55,5.052 -7.1,10.104 -10.65,15.156Zm265.265,0l10.65,15.156l10.65,-15.156l-10.65,-15.156c-3.55,5.052 -7.1,10.104 -10.65,15.156Zm-53.053,0l10.65,15.156l10.65,-15.156l-10.65,-15.156c-3.55,5.052 -7.1,10.104 -10.65,15.156Zm-65.775,-18.105l10.109,14.386l10.109,-14.386l-10.109,-14.386l-10.109,14.386Zm-238.738,0l10.108,14.386l10.109,-14.386l-10.109,-14.386l-10.108,14.386Zm371.37,0l10.109,14.386l10.109,-14.386l-10.109,-14.386l-10.109,14.386Zm-53.053,0l10.109,14.386l10.109,-14.386l-10.109,-14.386l-10.109,14.386Zm-265.264,0l10.108,14.386l10.109,-14.386l-10.109,-14.386l-10.108,14.386Zm79.579,0l10.109,14.386l10.109,-14.386l-10.109,-14.386l-10.109,14.386Zm26.526,0l10.109,14.386l10.109,-14.386l-10.109,-14.386l-10.109,14.386Zm53.053,0l10.109,14.386l10.109,-14.386l-10.109,-14.386l-10.109,14.386Zm132.633,0l10.109,14.386l10.109,-14.386l-10.109,-14.386l-10.109,14.386Zm-265.265,0l10.109,14.386l10.109,-14.386l-10.109,-14.386l-10.109,14.386Zm212.212,0l10.109,14.386l10.109,-14.386l-10.109,-14.386l-10.109,14.386Zm-26.527,0l10.109,14.386l10.109,-14.386l-10.109,-14.386l-10.109,14.386Zm-159.159,0l10.109,14.386l10.109,-14.386l-10.109,-14.386l-10.109,14.386Zm-79.579,0l10.109,14.386l10.109,-14.386l-10.109,-14.386l-10.109,14.386Zm159.159,0l10.109,14.386l10.109,-14.386l-10.109,-14.386l-10.109,14.386Zm-172.963,-18.105l10.65,15.156l10.65,-15.156l-10.65,-15.156c-3.55,5.052 -7.1,10.104 -10.65,15.156Zm-26.527,0l10.65,15.156l10.65,-15.156l-10.65,-15.156c-3.55,5.052 -7.1,10.104 -10.65,15.156Zm132.633,0l10.65,15.156l10.65,-15.156l-10.65,-15.156c-3.55,5.052 -7.1,10.104 -10.65,15.156Zm53.053,0l10.649,15.156l10.651,-15.156l-10.651,-15.156c-3.55,5.052 -7.099,10.104 -10.649,15.156Zm-106.106,0l10.65,15.156l10.65,-15.156l-10.65,-15.156c-3.55,5.052 -7.1,10.104 -10.65,15.156Zm-26.527,0l10.65,15.156l10.65,-15.156l-10.65,-15.156c-3.55,5.052 -7.1,10.104 -10.65,15.156Zm53.053,0l10.65,15.156l10.65,-15.156l-10.65,-15.156c-3.55,5.052 -7.1,10.104 -10.65,15.156Zm132.632,0l10.65,15.156l10.65,-15.156l-10.65,-15.156c-3.55,5.052 -7.1,10.104 -10.65,15.156Zm159.159,0l10.65,15.156l10.65,-15.156l-10.65,-15.156c-3.55,5.052 -7.1,10.104 -10.65,15.156Zm-53.053,0l10.65,15.156l10.65,-15.156l-10.65,-15.156c-3.55,5.052 -7.1,10.104 -10.65,15.156Zm-79.579,0l10.65,15.156l10.65,-15.156l-10.65,-15.156c-3.55,5.052 -7.1,10.104 -10.65,15.156Zm26.526,0l10.651,15.156l10.649,-15.156l-10.649,-15.156c-3.551,5.052 -7.101,10.104 -10.651,15.156Zm79.58,0l10.65,15.156l10.65,-15.156l-10.65,-15.156c-3.55,5.052 -7.1,10.104 -10.65,15.156Zm-53.053,0l10.65,15.156l10.65,-15.156l-10.65,-15.156c-3.55,5.052 -7.1,10.104 -10.65,15.156Zm-106.106,0l10.65,15.156l10.65,-15.156l-10.65,-15.156c-3.55,5.052 -7.1,10.104 -10.65,15.156Zm-53.053,0l10.65,15.156l10.65,-15.156l-10.65,-15.156c-3.55,5.052 -7.1,10.104 -10.65,15.156Zm93.384,-18.105l10.109,14.386l10.109,-14.386l-10.109,-14.386l-10.109,14.386Zm-238.738,0l10.108,14.386l10.109,-14.386l-10.109,-14.386l-10.108,14.386Zm185.685,0l10.109,14.386l10.109,-14.386l-10.109,-14.386l-10.109,14.386Zm185.685,0l10.109,14.386l10.109,-14.386l-10.109,-14.386l-10.109,14.386Zm-159.159,0l10.109,14.386l10.109,-14.386l-10.109,-14.386l-10.109,14.386Zm-53.053,0l10.109,14.386l10.109,-14.386l-10.109,-14.386l-10.109,14.386Zm-26.526,0l10.109,14.386l10.109,-14.386l-10.109,-14.386l-10.109,14.386Zm-53.053,0l10.109,14.386l10.109,-14.386l-10.109,-14.386l-10.109,14.386Zm-26.527,0l10.109,14.386l10.109,-14.386l-10.109,-14.386l-10.109,14.386Zm-26.526,0l10.109,14.386l10.109,-14.386l-10.109,-14.386l-10.109,14.386Zm318.318,0l10.109,14.386l10.109,-14.386l-10.109,-14.386l-10.109,14.386Zm-53.053,0l10.109,14.386l10.109,-14.386l-10.109,-14.386l-10.109,14.386Zm-26.527,0l10.109,14.386l10.109,-14.386l-10.109,-14.386l-10.109,14.386Zm-159.159,0l10.109,14.386l10.109,-14.386l-10.109,-14.386l-10.109,14.386Zm212.212,0l10.109,14.386l10.109,-14.386l-10.109,-14.386l-10.109,14.386Zm-305.595,-18.105l10.65,15.156l10.65,-15.156l-10.65,-15.156c-3.55,5.052 -7.1,10.104 -10.65,15.156Zm-26.527,0l10.65,15.156l10.65,-15.156l-10.65,-15.156c-3.55,5.052 -7.1,10.104 -10.65,15.156Zm371.371,0l10.65,15.156l10.65,-15.156l-10.65,-15.156c-3.55,5.052 -7.1,10.104 -10.65,15.156Zm-53.053,0l10.65,15.156l10.65,-15.156l-10.65,-15.156c-3.55,5.052 -7.1,10.104 -10.65,15.156Zm79.579,0l10.65,15.156l10.65,-15.156l-10.65,-15.156c-3.55,5.052 -7.1,10.104 -10.65,15.156Zm-291.791,0l10.65,15.156l10.65,-15.156l-10.65,-15.156c-3.55,5.052 -7.1,10.104 -10.65,15.156Zm-26.526,0l10.65,15.156l10.65,-15.156l-10.65,-15.156c-3.55,5.052 -7.1,10.104 -10.65,15.156Zm185.685,0l10.65,15.156l10.65,-15.156l-10.65,-15.156c-3.55,5.052 -7.1,10.104 -10.65,15.156Zm79.579,0l10.65,15.156l10.65,-15.156l-10.65,-15.156c-3.55,5.052 -7.1,10.104 -10.65,15.156Zm-291.791,0l10.65,15.156l10.65,-15.156l-10.65,-15.156c-3.55,5.052 -7.1,10.104 -10.65,15.156Zm79.58,0l10.65,15.156l10.65,-15.156l-10.65,-15.156c-3.55,5.052 -7.1,10.104 -10.65,15.156Zm53.053,0l10.649,15.156l10.651,-15.156l-10.651,-15.156c-3.55,5.052 -7.099,10.104 -10.649,15.156Zm53.052,0l10.65,15.156l10.65,-15.156l-10.65,-15.156c-3.55,5.052 -7.1,10.104 -10.65,15.156Zm53.053,0l10.651,15.156l10.649,-15.156l-10.649,-15.156c-3.551,5.052 -7.101,10.104 -10.651,15.156Zm-132.632,0l10.65,15.156l10.65,-15.156l-10.65,-15.156c-3.55,5.052 -7.1,10.104 -10.65,15.156Zm53.053,0l10.65,15.156l10.65,-15.156l-10.65,-15.156c-3.55,5.052 -7.1,10.104 -10.65,15.156Zm40.331,-18.105l10.109,14.386l10.109,-14.386l-10.109,-14.386l-10.109,14.386Zm-238.738,0l10.108,14.386l10.109,-14.386l-10.109,-14.386l-10.108,14.386Zm26.526,0l10.109,14.386l10.109,-14.386l-10.109,-14.386l-10.109,14.386Zm344.844,0l10.109,14.386l10.109,-14.386l-10.109,-14.386l-10.109,14.386Zm-238.738,0l10.109,14.386l10.109,-14.386l-10.109,-14.386l-10.109,14.386Zm132.632,0l10.109,14.386l10.109,-14.386l-10.109,-14.386l-10.109,14.386Zm-212.212,0l10.109,14.386l10.109,-14.386l-10.109,-14.386l-10.109,14.386Zm159.159,0l10.109,14.386l10.109,-14.386l-10.109,-14.386l-10.109,14.386Zm79.58,0l10.109,14.386l10.109,-14.386l-10.109,-14.386l-10.109,14.386Zm53.053,0l10.109,14.386l10.109,-14.386l-10.109,-14.386l-10.109,14.386Zm-26.527,0l10.109,14.386l10.109,-14.386l-10.109,-14.386l-10.109,14.386Zm-212.212,0l10.109,14.386l10.109,-14.386l-10.109,-14.386l-10.109,14.386Zm53.053,0l10.109,14.386l10.109,-14.386l-10.109,-14.386l-10.109,14.386Zm26.527,0l10.109,14.386l10.109,-14.386l-10.109,-14.386l-10.109,14.386Zm-106.106,0l10.109,14.386l10.109,-14.386l-10.109,-14.386l-10.109,14.386Zm-66.857,-18.105l10.65,15.156l10.65,-15.156l-10.65,-15.156c-3.55,5.052 -7.1,10.104 -10.65,15.156Zm-26.527,0l10.65,15.156l10.65,-15.156l-10.65,-15.156c-3.55,5.052 -7.1,10.104 -10.65,15.156Zm318.318,0l10.65,15.156l10.65,-15.156l-10.65,-15.156c-3.55,5.052 -7.1,10.104 -10.65,15.156Zm-132.632,0l10.649,15.156l10.651,-15.156l-10.651,-15.156c-3.55,5.052 -7.099,10.104 -10.649,15.156Zm53.052,0l10.65,15.156l10.65,-15.156l-10.65,-15.156c-3.55,5.052 -7.1,10.104 -10.65,15.156Zm159.159,0l10.65,15.156l10.65,-15.156l-10.65,-15.156c-3.55,5.052 -7.1,10.104 -10.65,15.156Zm-53.053,0l10.65,15.156l10.65,-15.156l-10.65,-15.156c-3.55,5.052 -7.1,10.104 -10.65,15.156Zm-53.053,0l10.651,15.156l10.649,-15.156l-10.649,-15.156c-3.551,5.052 -7.101,10.104 -10.651,15.156Zm-159.158,0l10.65,15.156l10.65,-15.156l-10.65,-15.156c-3.55,5.052 -7.1,10.104 -10.65,15.156Zm-79.58,0l10.65,15.156l10.65,-15.156l-10.65,-15.156c-3.55,5.052 -7.1,10.104 -10.65,15.156Zm26.527,0l10.65,15.156l10.65,-15.156l-10.65,-15.156c-3.55,5.052 -7.1,10.104 -10.65,15.156Zm26.526,0l10.65,15.156l10.65,-15.156l-10.65,-15.156c-3.55,5.052 -7.1,10.104 -10.65,15.156Zm159.159,0l10.65,15.156l10.65,-15.156l-10.65,-15.156c-3.55,5.052 -7.1,10.104 -10.65,15.156Zm106.106,0l10.65,15.156l10.65,-15.156l-10.65,-15.156c-3.55,5.052 -7.1,10.104 -10.65,15.156Zm-159.159,0l10.65,15.156l10.65,-15.156l-10.65,-15.156c-3.55,5.052 -7.1,10.104 -10.65,15.156Zm-53.053,0l10.65,15.156l10.65,-15.156l-10.65,-15.156c-3.55,5.052 -7.1,10.104 -10.65,15.156Zm93.384,-18.105l10.109,14.386l10.109,-14.386l-10.109,-14.387l-10.109,14.387Zm-238.738,0l10.108,14.386l10.109,-14.386l-10.109,-14.386l-10.108,14.386Zm371.37,0l10.109,14.386l10.109,-14.386l-10.109,-14.386l-10.109,14.386Zm-318.318,0l10.109,14.386l10.109,-14.386l-10.109,-14.386l-10.109,14.386Zm26.527,0l10.109,14.386l10.109,-14.386l-10.109,-14.386l-10.109,14.386Zm185.685,0l10.109,14.386l10.109,-14.386l-10.109,-14.386l-10.109,14.386Zm-106.106,0l10.109,14.386l10.109,-14.386l-10.109,-14.386l-10.109,14.386Zm159.159,0l10.109,14.386l10.109,-14.386l-10.109,-14.386l-10.109,14.386Zm-132.632,0l10.109,14.386l10.109,-14.386l-10.109,-14.386l-10.109,14.386Zm106.106,0l10.109,14.386l10.109,-14.386l-10.109,-14.386l-10.109,14.386Zm53.053,0l10.109,14.386l10.109,-14.386l-10.109,-14.386l-10.109,14.386Zm-238.739,0l10.109,14.386l10.109,-14.386l-10.109,-14.386l-10.109,14.386Zm106.106,0l10.109,14.386l10.109,-14.386l-10.109,-14.386l-10.109,14.386Zm-185.685,0l10.109,14.386l10.109,-14.386l-10.109,-14.386l-10.109,14.386Zm106.106,0l10.109,14.386l10.109,-14.386l-10.109,-14.386l-10.109,14.386Zm-105.864,-28.428l-6.799,0.009l-7.247,10.314l10.65,15.156l10.65,-15.156l-7.254,-10.323Zm-26.5,0.037l-6.852,0.01l-7.221,10.276l10.65,15.156l10.65,-15.156l-7.227,-10.286Zm185.5,-0.263l-6.482,0.009l-7.405,10.54l10.649,15.156l10.651,-15.156l-7.413,-10.549Zm132.5,-0.188l-6.217,0.009l-7.538,10.728l10.65,15.156l10.65,-15.156l-7.545,-10.737Zm26.5,-0.038l-6.164,0.009l-7.565,10.766l10.65,15.156l10.65,-15.156l-7.571,-10.775Zm-238.5,0.339l-6.64,0.009l-7.327,10.427l10.65,15.156l10.65,-15.156l-7.333,-10.436Zm-26.5,0.037l-6.693,0.01l-7.3,10.389l10.65,15.156l10.65,-15.156l-7.307,-10.399Zm79.5,-0.113l-6.535,0.01l-7.379,10.502l10.65,15.156l10.65,-15.156l-7.386,-10.512Zm79.5,-0.112l-6.376,0.009l-7.459,10.615l10.65,15.156l10.65,-15.156l-7.465,-10.624Zm132.5,-0.189l-6.111,0.009l-7.591,10.804l10.65,15.156l10.65,-15.156l-7.598,-10.813Zm-238.5,0.339l-6.588,0.009l-7.352,10.465l10.65,15.156l10.65,-15.156l-7.36,-10.474Zm79.5,-0.113l-6.429,0.009l-7.432,10.578l10.65,15.156l10.65,-15.156l-7.439,-10.587Zm79.5,-0.113l-6.27,0.009l-7.512,10.691l10.651,15.156l10.649,-15.156l-7.518,-10.7Zm106,-0.15l-6.058,0.008l-7.618,10.842l10.65,15.156l10.65,-15.156l-7.624,-10.85Zm-132.5,0.188l-6.323,0.009l-7.485,10.653l10.65,15.156l10.65,-15.156l-7.492,-10.662Zm-212,0.301l-6.746,0.01l-7.274,10.351l10.65,15.156l10.65,-15.156l-7.28,-10.361Zm190.721,-0.271l4.858,6.913l4.867,-6.927l-9.725,0.014Zm-238.5,0.339l4.619,6.574l4.629,-6.587l-9.248,0.013Zm371.001,-0.527l4.989,7.101l4.999,-7.115l-9.988,0.014Zm-212.001,0.301l4.778,6.8l4.788,-6.814l-9.566,0.014Zm-26.5,0.038l4.752,6.762l4.761,-6.776l-9.513,0.014Zm-26.5,0.037l4.725,6.725l4.735,-6.738l-9.46,0.013Zm-26.5,0.038l4.699,6.687l4.708,-6.7l-9.407,0.013Zm-26.5,0.038l4.672,6.649l4.682,-6.663l-9.354,0.014Zm-26.5,0.037l4.646,6.612l4.655,-6.625l-9.301,0.013Zm318.001,-0.451l4.963,7.063l4.973,-7.077l-9.936,0.014Zm-26.5,0.037l4.936,7.026l4.947,-7.04l-9.883,0.014Zm-26.5,0.038l4.91,6.988l4.92,-7.002l-9.83,0.014Zm-26.5,0.038l4.883,6.95l4.894,-6.964l-9.777,0.014Zm-53.001,0.075l4.831,6.875l4.841,-6.889l-9.672,0.014Zm-26.5,0.037l4.805,6.838l4.814,-6.851l-9.619,0.013Zm-194.565,-4l0.842,-0.001l-0.421,-0.599l-0.421,0.6Zm26.553,-0.037l0.789,-0.001l-0.394,-0.562l-0.395,0.563Zm26.552,-0.038l0.737,-0.001l-0.368,-0.524l-0.369,0.525Zm26.553,-0.038l0.684,-0.001l-0.341,-0.486l-0.343,0.487Zm26.553,-0.037l0.631,-0.001l-0.315,-0.449l-0.316,0.45Zm26.553,-0.038l0.578,-0.001l-0.288,-0.411l-0.29,0.412Zm26.553,-0.038l0.525,-0.001l-0.262,-0.373l-0.263,0.374Zm26.553,-0.038l0.472,0l-0.236,-0.336l-0.236,0.336Zm26.553,-0.037l0.419,-0.001l-0.209,-0.298l-0.21,0.299Zm26.553,-0.038l0.366,0l-0.183,-0.261l-0.183,0.261Zm26.553,-0.038l0.313,0l-0.156,-0.223l-0.157,0.223Zm26.553,-0.037l0.26,-0.001l-0.129,-0.185l-0.131,0.186Zm26.553,-0.038l0.208,0l-0.104,-0.148l-0.104,0.148Zm26.553,-0.038l0.155,0l-0.078,-0.11l-0.077,0.11Zm26.553,-0.037l0.102,-0.001l-0.051,-0.072l-0.051,0.073Zm26.553,-0.038l0.049,0l-0.025,-0.035l-0.024,0.035Z" style="fill:url(#_Linear6);fill-rule:nonzero;"/><path d="M448.855,93.657l3.831,-5.452c0.357,-0.448 0.379,-0.475 0.985,-0.439c0.278,0.05 0.445,0.077 0.734,0.439l3.821,5.438l11.1,-0.015c0.134,0.026 0.268,0.052 0.402,0.079c0.36,0.24 0.649,0.562 0.65,0.969c0,0.137 -0.053,0.268 -0.08,0.402l-0.227,0.341c-0.338,0.226 -0.343,0.229 -0.742,0.309l-9.629,0.013l7.968,11.339c0.23,0.37 0.32,0.693 0,1.207l-12.298,17.502l12.298,17.501c0.339,0.545 0.257,0.794 0,1.207l-12.298,17.502l12.298,17.501c0.339,0.545 0.257,0.794 0,1.208l-12.298,17.501l12.298,17.501c0.339,0.545 0.257,0.794 0,1.208l-12.298,17.501l12.298,17.502c0.339,0.544 0.257,0.794 0,1.207l-12.298,17.501l12.298,17.502c0.23,0.37 0.32,0.692 0,1.207l-12.298,17.502l12.298,17.501c0.23,0.37 0.32,0.693 0,1.207l-12.298,17.502l12.298,17.501c0.339,0.545 0.257,0.794 0,1.208l-12.298,17.501l12.298,17.501c0.339,0.545 0.257,0.794 0,1.208l-12.298,17.501l12.298,17.502c0.339,0.544 0.257,0.793 0,1.207l-8.755,12.458l10.413,-0.014c0.134,0.026 0.268,0.052 0.402,0.079c0.114,0.076 0.244,0.131 0.341,0.227c0.267,0.266 0.239,0.395 0.309,0.742l-0.08,0.402l-0.227,0.341l-0.34,0.228l-0.402,0.081l-11.893,0.016l-3.031,4.315c-0.422,0.53 -1.269,0.565 -1.719,0l-3.024,-4.304l-18.779,0.027l-3.005,4.277c-0.422,0.531 -1.268,0.565 -1.718,0l-2.998,-4.266l-18.832,0.027l-2.978,4.239c-0.423,0.531 -1.269,0.565 -1.719,0l-2.971,-4.228l-18.885,0.027l-2.952,4.201c-0.423,0.531 -1.268,0.565 -1.718,0l-2.945,-4.191l-18.938,0.027l-2.925,4.164c-0.426,0.535 -1.261,0.575 -1.719,0l-2.918,-4.153l-18.991,0.027l-2.899,4.126c-0.43,0.54 -1.276,0.556 -1.718,0l-2.892,-4.115l-19.044,0.027l-2.873,4.088c-0.429,0.54 -1.275,0.556 -1.718,0l-2.865,-4.078l-19.097,0.027l-2.846,4.051c-0.43,0.54 -1.276,0.556 -1.718,0l-2.839,-4.04l-19.15,0.027l-2.819,4.013c-0.428,0.537 -1.269,0.565 -1.719,0l-2.812,-4.003l-19.203,0.028l-2.793,3.975c-0.43,0.54 -1.276,0.556 -1.718,0l-2.786,-3.965l-19.255,0.027l-2.767,3.938c-0.423,0.531 -1.269,0.565 -1.719,0l-2.759,-3.927l-19.308,0.027l-2.741,3.9c-0.427,0.537 -1.268,0.565 -1.718,0l-2.733,-3.89l-19.361,0.028l-2.714,3.862c-0.428,0.537 -1.269,0.565 -1.719,0l-2.706,-3.852l-19.414,0.028l-2.688,3.824c-0.43,0.54 -1.276,0.556 -1.718,0l-2.68,-3.814l-19.467,0.027l-2.661,3.787c-0.43,0.54 -1.276,0.556 -1.718,0l-2.654,-3.777l-19.52,0.028l-2.635,3.749c-0.423,0.532 -1.252,0.585 -1.718,0l-2.627,-3.739l-9.776,0.014l-0.401,-0.08l-0.341,-0.227l-0.229,-0.34l-0.08,-0.402l0.079,-0.402l0.227,-0.341c0.338,-0.226 0.343,-0.228 0.743,-0.308l8.303,-0.012l-9.161,-13.038c-0.23,-0.37 -0.321,-0.693 0,-1.207l12.298,-17.502l-12.298,-17.501c-0.339,-0.545 -0.258,-0.794 0,-1.208l12.298,-17.501l-12.298,-17.501c-0.23,-0.37 -0.321,-0.693 0,-1.208l12.298,-17.501l-12.298,-17.502c-0.339,-0.544 -0.258,-0.794 0,-1.207l12.298,-17.501l-12.298,-17.502c-0.339,-0.545 -0.258,-0.794 0,-1.207l12.298,-17.502l-12.298,-17.501c-0.23,-0.37 -0.321,-0.693 0,-1.207l12.298,-17.502l-12.298,-17.501c-0.339,-0.545 -0.258,-0.794 0,-1.208l12.298,-17.501l-12.298,-17.501c-0.339,-0.545 -0.258,-0.794 0,-1.208l12.298,-17.501l-12.298,-17.502c-0.339,-0.544 -0.258,-0.794 0,-1.207l12.298,-17.501l-12.298,-17.502c-0.23,-0.37 -0.321,-0.692 0,-1.207l7.558,-10.756l-6.698,0.01l-0.401,-0.08l-0.341,-0.227l-0.229,-0.34l-0.08,-0.402l0.079,-0.402l0.227,-0.341l0.341,-0.228l0.402,-0.08l8.177,-0.012l4.228,-6.017c0.357,-0.448 0.379,-0.475 0.985,-0.439c0.471,0.086 0.55,0.208 0.733,0.439l4.218,6.003l16.389,-0.024l4.202,-5.979c0.356,-0.448 0.378,-0.475 0.984,-0.439c0.472,0.086 0.55,0.208 0.734,0.439l4.192,5.965l16.441,-0.023l4.175,-5.942c0.356,-0.448 0.378,-0.475 0.985,-0.439c0.278,0.05 0.445,0.077 0.733,0.439l4.166,5.927l16.494,-0.023l4.148,-5.904c0.357,-0.448 0.379,-0.475 0.985,-0.439c0.279,0.05 0.446,0.077 0.734,0.439l4.139,5.89l16.547,-0.024l4.122,-5.866c0.356,-0.448 0.378,-0.475 0.985,-0.439c0.471,0.086 0.549,0.208 0.733,0.439l4.113,5.852l16.6,-0.023l4.095,-5.829c0.357,-0.448 0.379,-0.475 0.985,-0.439c0.472,0.086 0.55,0.208 0.734,0.439l4.086,5.815l16.653,-0.024l4.069,-5.791c0.356,-0.448 0.378,-0.475 0.984,-0.439c0.472,0.086 0.55,0.208 0.734,0.439l4.06,5.777l16.705,-0.024l4.043,-5.753c0.357,-0.448 0.379,-0.475 0.985,-0.439c0.472,0.086 0.55,0.208 0.734,0.439l4.033,5.739l16.758,-0.023l4.017,-5.716c0.356,-0.448 0.378,-0.475 0.984,-0.439c0.472,0.086 0.55,0.208 0.734,0.439l4.007,5.702l16.811,-0.024l3.99,-5.678c0.357,-0.448 0.379,-0.475 0.985,-0.439c0.278,0.05 0.445,0.077 0.733,0.439l3.981,5.664l16.864,-0.024l3.964,-5.64c0.356,-0.448 0.378,-0.475 0.985,-0.439c0.471,0.086 0.549,0.208 0.733,0.439l3.954,5.626l16.917,-0.024l3.937,-5.602c0.357,-0.448 0.379,-0.475 0.985,-0.439c0.472,0.086 0.55,0.208 0.734,0.439l3.927,5.589l16.97,-0.024l3.911,-5.565c0.356,-0.448 0.378,-0.475 0.984,-0.439c0.472,0.086 0.55,0.208 0.734,0.439l3.901,5.551l17.023,-0.024l3.884,-5.527c0.357,-0.448 0.379,-0.475 0.985,-0.439c0.472,0.086 0.55,0.208 0.734,0.439l3.874,5.514l17.076,-0.025l3.858,-5.489c0.356,-0.448 0.378,-0.475 0.984,-0.439c0.279,0.05 0.446,0.077 0.734,0.439l3.848,5.476l17.129,-0.024Zm-365.729,355.614l-1.9,0.003l0.949,1.35l0.951,-1.353Zm-26.553,0.038l-1.847,0.002l0.922,1.313l0.925,-1.315Zm238.976,-0.34l-2.323,0.004l1.16,1.651l1.163,-1.655Zm106.212,-0.151l-2.535,0.004l1.266,1.802l1.269,-1.806Zm-26.553,0.038l-2.482,0.004l1.24,1.764l1.242,-1.768Zm-265.53,0.377l-1.952,0.003l0.975,1.388l0.977,-1.391Zm132.765,-0.188l-2.217,0.003l1.107,1.576l1.11,-1.579Zm26.553,-0.038l-2.27,0.003l1.134,1.614l1.136,-1.617Zm79.659,-0.113l-2.429,0.003l1.214,1.727l1.215,-1.73Zm106.212,-0.151l-2.641,0.004l1.319,1.877l1.322,-1.881Zm-265.53,0.377l-2.111,0.003l1.055,1.501l1.056,-1.504Zm-53.106,0.076l-2.005,0.002l1.002,1.426l1.003,-1.428Zm185.871,-0.264l-2.376,0.003l1.187,1.689l1.189,-1.692Zm106.212,-0.151l-2.588,0.003l1.293,1.84l1.295,-1.843Zm-212.424,0.301l-2.164,0.003l1.081,1.539l1.083,-1.542Zm-53.106,0.076l-2.058,0.003l1.028,1.463l1.03,-1.466Zm-106.689,-31.996c-0.282,0.125 -0.609,0.128 -0.895,0.002l-11.532,16.411l9.584,13.638l4.798,-0.006l9.578,-13.632l-11.533,-16.413Zm4.524,30.041l16.568,-0.024l-8.276,-11.778l-8.292,11.802Zm22.002,-30.042c-0.282,0.124 -0.609,0.126 -0.893,0.001l-11.533,16.413l9.557,13.601l4.851,-0.007l9.552,-13.594l-11.534,-16.414Zm4.551,30.004l16.516,-0.023l-8.25,-11.741l-8.266,11.764Zm21.975,-30.004c-0.281,0.122 -0.608,0.127 -0.893,0.002l-11.533,16.412l9.531,13.563l4.904,-0.007l9.525,-13.556l-11.534,-16.414Zm4.578,29.966l16.463,-0.023l-8.224,-11.703l-8.239,11.726Zm21.949,-29.966c-0.282,0.124 -0.609,0.126 -0.893,0.001l-11.533,16.413l9.504,13.525l4.957,-0.007l9.499,-13.518l-11.534,-16.414Zm4.604,29.929l16.41,-0.024l-8.197,-11.665l-8.213,11.689Zm21.924,-29.926c-0.281,0.128 -0.609,0.135 -0.898,0.003l-11.53,16.408l9.478,13.488l5.01,-0.007l9.472,-13.481l-11.532,-16.411Zm4.629,29.888l16.357,-0.023l-8.171,-11.628l-8.186,11.651Zm21.895,-29.891c-0.28,0.123 -0.607,0.127 -0.893,0.002l-11.532,16.412l9.451,13.45l5.062,-0.007l9.447,-13.443l-11.535,-16.414Zm4.658,29.853l16.304,-0.023l-8.144,-11.59l-8.16,11.613Zm21.871,-29.851c-0.282,0.127 -0.61,0.132 -0.897,0.002l-11.531,16.41l9.425,13.413l5.115,-0.008l9.42,-13.405l-11.532,-16.412Zm4.682,29.814l16.251,-0.023l-8.118,-11.553l-8.133,11.576Zm21.843,-29.815c-0.282,0.125 -0.609,0.128 -0.894,0.002l-11.532,16.411l9.398,13.375l5.168,-0.007l9.393,-13.368l-11.533,-16.413Zm4.71,29.777l16.198,-0.023l-8.091,-11.515l-8.107,11.538Zm21.818,-29.776c-0.282,0.127 -0.61,0.132 -0.897,0.002l-11.531,16.41l9.372,13.337l5.221,-0.007l9.367,-13.33l-11.532,-16.412Zm4.735,29.738l16.145,-0.023l-8.065,-11.477l-8.08,11.5Zm21.789,-29.74c-0.281,0.122 -0.608,0.127 -0.893,0.002l-11.532,16.412l9.345,13.3l5.274,-0.008l9.34,-13.292l-11.534,-16.414Zm4.763,29.703l16.093,-0.023l-8.038,-11.44l-8.055,11.463Zm21.764,-29.703c-0.281,0.123 -0.608,0.127 -0.893,0.002l-11.533,16.412l9.319,13.262l5.327,-0.008l9.314,-13.254l-11.534,-16.414Zm4.79,29.665l16.039,-0.023l-8.012,-11.402l-8.027,11.425Zm21.736,-29.665c-0.28,0.122 -0.607,0.127 -0.893,0.002l-11.533,16.412l9.293,13.224l5.38,-0.007l9.287,-13.217l-11.534,-16.414Zm4.817,29.627l15.986,-0.023l-7.985,-11.364l-8.001,11.387Zm21.71,-29.627c-0.281,0.122 -0.608,0.127 -0.893,0.002l-11.533,16.412l9.266,13.187l5.433,-0.008l9.261,-13.179l-11.534,-16.414Zm4.842,29.589l15.934,-0.022l-7.959,-11.327l-7.975,11.349Zm21.684,-29.589c-0.28,0.122 -0.608,0.127 -0.893,0.002l-11.533,16.412l9.24,13.149l5.486,-0.008l9.234,-13.141l-11.534,-16.414Zm4.869,29.552l15.881,-0.023l-7.932,-11.289l-7.949,11.312Zm21.658,-29.552c-0.281,0.123 -0.608,0.127 -0.893,0.002l-11.533,16.412l9.213,13.112l5.539,-0.008l9.208,-13.104l-11.534,-16.414Zm4.895,29.514l15.828,-0.022l-7.906,-11.252l-7.922,11.274Zm21.631,-29.514c-0.281,0.122 -0.608,0.127 -0.893,0.002l-11.533,16.412l9.187,13.074l5.592,-0.008l9.181,-13.066l-11.534,-16.414Zm-157.78,-1.691l11.439,16.279l11.439,-16.279l-11.439,-16.279l-11.439,16.279Zm-238.738,0l11.438,16.279l11.439,-16.279l-11.439,-16.279l-11.438,16.279Zm106.105,0l11.439,16.279l11.439,-16.279l-11.439,-16.279l-11.439,16.279Zm185.686,0l11.439,16.279l11.439,-16.279l-11.439,-16.279l-11.439,16.279Zm-159.159,0l11.439,16.279l11.439,-16.279l-11.439,-16.279l-11.439,16.279Zm132.633,0l11.438,16.279l11.439,-16.279l-11.439,-16.279l-11.438,16.279Zm-238.739,0l11.439,16.279l11.439,-16.279l-11.439,-16.279l-11.439,16.279Zm291.791,0l11.439,16.279l11.439,-16.279l-11.439,-16.279l-11.439,16.279Zm-132.632,0l11.439,16.279l11.438,-16.279l-11.438,-16.279l-11.439,16.279Zm26.526,0l11.439,16.279l11.439,-16.279l-11.439,-16.279l-11.439,16.279Zm159.159,0l11.439,16.279l11.439,-16.279l-11.439,-16.279l-11.439,16.279Zm-318.317,0l11.438,16.279l11.439,-16.279l-11.439,-16.279l-11.438,16.279Zm106.105,0l11.439,16.279l11.439,-16.279l-11.439,-16.279l-11.439,16.279Zm-79.579,0l11.439,16.279l11.439,-16.279l-11.439,-16.279l-11.439,16.279Zm265.265,0l11.439,16.279l11.438,-16.279l-11.438,-16.279l-11.439,16.279Zm-319.695,-34.517c-0.282,0.127 -0.609,0.132 -0.896,0.002l-11.531,16.41l11.487,16.347c0.131,-0.075 0.288,-0.074 0.618,-0.054c0.147,0.026 0.255,0.056 0.341,0.092l11.514,-16.385l-11.533,-16.412Zm79.58,0.001c-0.281,0.128 -0.609,0.135 -0.898,0.003l-11.53,16.408l11.487,16.347c0.132,-0.075 0.289,-0.074 0.619,-0.054c0.146,0.026 0.255,0.056 0.34,0.092l11.514,-16.385l-11.532,-16.411Zm53.051,-0.003c-0.282,0.124 -0.609,0.126 -0.893,0.001l-11.533,16.413l11.487,16.347c0.132,-0.075 0.289,-0.074 0.618,-0.054c0.147,0.026 0.256,0.056 0.341,0.092l11.514,-16.385l-11.534,-16.414Zm-106.106,0c-0.282,0.124 -0.609,0.126 -0.893,0.001l-11.533,16.413l11.487,16.347c0.132,-0.075 0.289,-0.074 0.619,-0.054c0.146,0.026 0.255,0.056 0.34,0.092l11.514,-16.385l-11.534,-16.414Zm26.529,0.003c-0.282,0.128 -0.61,0.135 -0.899,0.003l-11.529,16.408l11.487,16.347c0.131,-0.075 0.288,-0.074 0.618,-0.054c0.147,0.026 0.255,0.056 0.341,0.092l11.514,-16.385l-11.532,-16.411Zm132.63,-0.004c-0.281,0.123 -0.608,0.128 -0.893,0.002l-11.533,16.413l11.487,16.347c0.132,-0.075 0.289,-0.074 0.618,-0.054c0.147,0.026 0.256,0.056 0.341,0.092l11.514,-16.385l-11.534,-16.415Zm-212.211,0.002c-0.282,0.125 -0.609,0.128 -0.895,0.002l-11.532,16.411l11.487,16.347c0.132,-0.075 0.289,-0.074 0.619,-0.054c0.146,0.026 0.255,0.056 0.341,0.092l11.513,-16.385l-11.533,-16.413Zm291.79,-0.002c-0.281,0.122 -0.608,0.125 -0.892,0.001l-11.534,16.414l11.487,16.347c0.132,-0.075 0.289,-0.074 0.619,-0.054c0.147,0.026 0.255,0.056 0.341,0.092l11.513,-16.385l-11.534,-16.415Zm106.106,0c-0.281,0.122 -0.608,0.125 -0.892,0.001l-11.534,16.414l11.487,16.347c0.132,-0.075 0.289,-0.074 0.619,-0.054c0.147,0.026 0.255,0.056 0.341,0.092l11.513,-16.385l-11.534,-16.415Zm-132.632,0.001c-0.281,0.123 -0.608,0.127 -0.893,0.002l-11.533,16.412l11.487,16.347c0.132,-0.075 0.289,-0.074 0.619,-0.054c0.146,0.026 0.255,0.056 0.34,0.092l11.514,-16.385l-11.534,-16.414Zm106.106,0c-0.281,0.123 -0.608,0.127 -0.893,0.002l-11.533,16.412l11.487,16.347c0.132,-0.075 0.289,-0.074 0.618,-0.054c0.147,0.026 0.256,0.056 0.341,0.092l11.514,-16.385l-11.534,-16.414Zm-185.685,0c-0.282,0.124 -0.609,0.126 -0.893,0.001l-11.533,16.413l11.486,16.347c0.132,-0.075 0.289,-0.074 0.619,-0.054c0.13,0.023 0.236,0.042 0.341,0.091l11.513,-16.384l-11.533,-16.414Zm53.053,0c-0.282,0.124 -0.609,0.126 -0.893,0.001l-11.533,16.413l11.486,16.347c0.132,-0.075 0.289,-0.074 0.619,-0.054c0.13,0.023 0.236,0.042 0.341,0.091l11.513,-16.384l-11.533,-16.414Zm-106.106,0c-0.282,0.124 -0.609,0.126 -0.893,0.001l-11.533,16.413l11.486,16.347c0.132,-0.075 0.289,-0.074 0.619,-0.054c0.13,0.023 0.236,0.042 0.341,0.091l11.514,-16.384l-11.534,-16.414Zm212.211,0c-0.28,0.122 -0.608,0.127 -0.893,0.001l-11.533,16.413l11.487,16.347c0.132,-0.075 0.289,-0.074 0.619,-0.054c0.13,0.023 0.236,0.042 0.341,0.091l11.513,-16.384l-11.534,-16.414Zm-26.526,0c-0.281,0.122 -0.608,0.127 -0.893,0.001l-11.533,16.413l11.487,16.347c0.132,-0.075 0.289,-0.074 0.618,-0.054c0.131,0.023 0.237,0.042 0.342,0.091l11.513,-16.384l-11.534,-16.414Zm-78.201,-1.691l11.439,16.279l11.439,-16.279l-11.439,-16.279l-11.439,16.279Zm-238.738,0l11.438,16.279l11.439,-16.279l-11.439,-16.279l-11.438,16.279Zm371.37,0l11.439,16.279l11.439,-16.279l-11.439,-16.279l-11.439,16.279Zm-26.526,0l11.439,16.279l11.438,-16.279l-11.438,-16.279l-11.439,16.279Zm-212.212,0l11.439,16.279l11.439,-16.279l-11.439,-16.279l-11.439,16.279Zm185.685,0l11.439,16.279l11.439,-16.279l-11.439,-16.279l-11.439,16.279Zm-132.632,0l11.439,16.279l11.438,-16.279l-11.438,-16.279l-11.439,16.279Zm-79.58,0l11.439,16.279l11.439,-16.279l-11.439,-16.279l-11.439,16.279Zm-26.526,0l11.439,16.279l11.439,-16.279l-11.439,-16.279l-11.439,16.279Zm185.686,0l11.438,16.279l11.439,-16.279l-11.439,-16.279l-11.438,16.279Zm-212.212,0l11.438,16.279l11.439,-16.279l-11.439,-16.279l-11.438,16.279Zm238.738,0l11.439,16.279l11.439,-16.279l-11.439,-16.279l-11.439,16.279Zm-132.633,0l11.439,16.279l11.439,-16.279l-11.439,-16.279l-11.439,16.279Zm-132.632,0l11.439,16.279l11.439,-16.279l-11.439,-16.279l-11.439,16.279Zm185.685,0l11.439,16.279l11.439,-16.279l-11.439,-16.279l-11.439,16.279Zm-27.904,-34.518c-0.282,0.124 -0.609,0.128 -0.894,0.001l-11.532,16.412l11.486,16.347c0.132,-0.075 0.289,-0.074 0.619,-0.055c0.147,0.027 0.255,0.057 0.341,0.093l11.513,-16.385l-11.533,-16.413Zm26.527,0c-0.282,0.124 -0.609,0.128 -0.895,0.001l-11.532,16.412l11.487,16.347c0.132,-0.075 0.289,-0.074 0.618,-0.055c0.147,0.027 0.256,0.057 0.341,0.093l11.514,-16.385l-11.533,-16.413Zm26.528,0.002c-0.282,0.128 -0.61,0.135 -0.899,0.003l-11.529,16.408l11.486,16.347c0.132,-0.075 0.289,-0.074 0.619,-0.055c0.147,0.027 0.255,0.057 0.341,0.093l11.513,-16.385l-11.531,-16.411Zm-132.633,-0.001c-0.282,0.126 -0.61,0.131 -0.897,0.002l-11.531,16.41l11.487,16.347c0.132,-0.075 0.289,-0.074 0.619,-0.055c0.146,0.027 0.255,0.057 0.34,0.093l11.514,-16.385l-11.532,-16.412Zm-106.108,-0.002c-0.281,0.123 -0.608,0.127 -0.893,0.001l-11.533,16.413l11.487,16.347c0.132,-0.075 0.289,-0.074 0.619,-0.055c0.146,0.027 0.255,0.057 0.341,0.093l11.513,-16.385l-11.534,-16.414Zm344.844,-0.001c-0.28,0.123 -0.608,0.128 -0.893,0.002l-11.533,16.413l11.487,16.347c0.132,-0.075 0.289,-0.074 0.619,-0.055c0.147,0.027 0.255,0.057 0.341,0.093l11.513,-16.385l-11.534,-16.415Zm53.053,0c-0.281,0.123 -0.608,0.127 -0.893,0.002l-11.533,16.413l11.487,16.347c0.132,-0.075 0.289,-0.074 0.619,-0.055c0.147,0.027 0.255,0.057 0.341,0.093l11.513,-16.385l-11.534,-16.415Zm-106.106,0.001c-0.28,0.123 -0.608,0.127 -0.893,0.001l-11.533,16.413l11.487,16.347c0.132,-0.075 0.289,-0.074 0.619,-0.055c0.147,0.027 0.255,0.057 0.341,0.093l11.513,-16.385l-11.534,-16.414Zm79.58,0c-0.281,0.123 -0.608,0.127 -0.893,0.001l-11.533,16.413l11.487,16.347c0.132,-0.075 0.289,-0.074 0.618,-0.055c0.147,0.027 0.256,0.057 0.341,0.093l11.514,-16.385l-11.534,-16.414Zm-106.106,-0.001c-0.281,0.123 -0.608,0.128 -0.893,0.002l-11.533,16.413l11.487,16.347c0.132,-0.075 0.289,-0.074 0.619,-0.055c0.146,0.027 0.255,0.057 0.34,0.093l11.514,-16.385l-11.534,-16.415Zm-238.739,0c-0.281,0.122 -0.608,0.124 -0.892,0.001l-11.533,16.414l11.487,16.347c0.131,-0.075 0.288,-0.074 0.618,-0.055c0.13,0.024 0.236,0.042 0.342,0.092l11.513,-16.384l-11.535,-16.415Zm26.529,0.003c-0.282,0.126 -0.61,0.131 -0.897,0.002l-11.531,16.41l11.487,16.347c0.132,-0.075 0.289,-0.074 0.619,-0.055c0.13,0.024 0.236,0.042 0.341,0.092l11.513,-16.384l-11.532,-16.412Zm106.106,0c-0.282,0.126 -0.61,0.131 -0.897,0.002l-11.531,16.41l11.487,16.347c0.132,-0.075 0.289,-0.074 0.618,-0.055c0.131,0.024 0.237,0.042 0.342,0.092l11.513,-16.384l-11.532,-16.412Zm-79.581,-0.002c-0.282,0.123 -0.609,0.125 -0.893,0.001l-11.533,16.413l11.487,16.347c0.131,-0.075 0.288,-0.074 0.618,-0.055c0.13,0.024 0.236,0.042 0.342,0.092l11.513,-16.384l-11.534,-16.414Zm53.053,0.001c-0.282,0.124 -0.609,0.128 -0.894,0.001l-11.532,16.412l11.486,16.347c0.132,-0.075 0.289,-0.074 0.619,-0.055c0.13,0.024 0.236,0.042 0.341,0.092l11.514,-16.384l-11.534,-16.413Zm185.685,-0.002c-0.281,0.123 -0.608,0.128 -0.893,0.002l-11.533,16.413l11.487,16.347c0.132,-0.075 0.289,-0.074 0.618,-0.055c0.131,0.024 0.237,0.042 0.342,0.092l11.513,-16.384l-11.534,-16.415Zm-78.201,-1.69l11.439,16.279l11.439,-16.279l-11.439,-16.279l-11.439,16.279Zm-238.738,0l11.438,16.279l11.439,-16.279l-11.439,-16.279l-11.438,16.279Zm318.317,0l11.439,16.279l11.439,-16.279l-11.439,-16.279l-11.439,16.279Zm-291.791,0l11.439,16.279l11.439,-16.279l-11.439,-16.279l-11.439,16.279Zm106.106,0l11.439,16.279l11.439,-16.279l-11.439,-16.279l-11.439,16.279Zm-26.527,0l11.439,16.279l11.439,-16.279l-11.439,-16.279l-11.439,16.279Zm-26.526,0l11.439,16.279l11.439,-16.279l-11.439,-16.279l-11.439,16.279Zm-26.526,0l11.438,16.279l11.439,-16.279l-11.439,-16.279l-11.438,16.279Zm106.105,0l11.439,16.279l11.439,-16.279l-11.439,-16.279l-11.439,16.279Zm212.212,0l11.439,16.279l11.439,-16.279l-11.439,-16.279l-11.439,16.279Zm-185.685,0l11.439,16.279l11.439,-16.279l-11.439,-16.279l-11.439,16.279Zm159.159,0l11.439,16.279l11.439,-16.279l-11.439,-16.279l-11.439,16.279Zm-79.58,0l11.439,16.279l11.439,-16.279l-11.439,-16.279l-11.439,16.279Zm-53.053,0l11.439,16.279l11.439,-16.279l-11.439,-16.279l-11.439,16.279Zm79.58,0l11.439,16.279l11.439,-16.279l-11.439,-16.279l-11.439,16.279Zm-80.958,-34.519c-0.282,0.123 -0.609,0.125 -0.893,0.001l-11.533,16.413l11.487,16.347c0.132,-0.075 0.289,-0.075 0.618,-0.055c0.147,0.027 0.256,0.057 0.341,0.093l11.514,-16.385l-11.534,-16.414Zm26.527,0c-0.282,0.123 -0.609,0.125 -0.893,0.001l-11.533,16.413l11.486,16.347c0.132,-0.075 0.289,-0.075 0.619,-0.055c0.146,0.027 0.255,0.057 0.341,0.093l11.513,-16.385l-11.533,-16.414Zm-185.686,0c-0.282,0.123 -0.609,0.125 -0.893,0.001l-11.533,16.413l11.487,16.347c0.132,-0.075 0.289,-0.075 0.619,-0.055c0.146,0.027 0.255,0.057 0.34,0.093l11.514,-16.385l-11.534,-16.414Zm-53.053,-0.001c-0.281,0.123 -0.608,0.128 -0.893,0.002l-11.533,16.413l11.487,16.347c0.132,-0.075 0.289,-0.075 0.619,-0.055c0.146,0.027 0.255,0.057 0.34,0.093l11.514,-16.385l-11.534,-16.415Zm371.371,0c-0.281,0.123 -0.608,0.128 -0.893,0.002l-11.533,16.413l11.487,16.347c0.132,-0.075 0.289,-0.075 0.618,-0.055c0.147,0.027 0.256,0.057 0.341,0.093l11.514,-16.385l-11.534,-16.415Zm26.526,0c-0.281,0.123 -0.608,0.128 -0.893,0.002l-11.533,16.413l11.487,16.347c0.132,-0.075 0.289,-0.075 0.619,-0.055c0.147,0.027 0.255,0.057 0.341,0.093l11.513,-16.385l-11.534,-16.415Zm-371.371,0c-0.28,0.123 -0.607,0.128 -0.893,0.002l-11.532,16.413l11.487,16.347c0.132,-0.075 0.288,-0.075 0.618,-0.055c0.13,0.024 0.236,0.042 0.342,0.092l11.513,-16.384l-11.535,-16.415Zm159.16,0.002c-0.282,0.124 -0.609,0.128 -0.894,0.001l-11.532,16.412l11.486,16.347c0.132,-0.075 0.289,-0.075 0.619,-0.055c0.13,0.024 0.236,0.042 0.341,0.092l11.513,-16.384l-11.533,-16.413Zm-53.052,0.001c-0.282,0.126 -0.609,0.131 -0.897,0.002l-11.53,16.41l11.487,16.347c0.131,-0.075 0.288,-0.075 0.618,-0.055c0.13,0.024 0.236,0.042 0.341,0.092l11.514,-16.384l-11.533,-16.412Zm26.526,-0.001c-0.282,0.124 -0.609,0.128 -0.895,0.001l-11.532,16.412l11.487,16.347c0.132,-0.075 0.289,-0.075 0.618,-0.055c0.131,0.024 0.237,0.042 0.342,0.092l11.513,-16.384l-11.533,-16.413Zm-79.58,-0.001c-0.282,0.123 -0.609,0.125 -0.893,0.001l-11.533,16.413l11.487,16.347c0.131,-0.075 0.288,-0.075 0.618,-0.055c0.13,0.024 0.236,0.042 0.341,0.092l11.514,-16.384l-11.534,-16.414Zm26.527,0.001c-0.282,0.124 -0.609,0.128 -0.895,0.001l-11.532,16.412l11.487,16.347c0.132,-0.075 0.289,-0.075 0.619,-0.055c0.13,0.024 0.236,0.042 0.341,0.092l11.513,-16.384l-11.533,-16.413Zm185.684,-0.002c-0.28,0.123 -0.607,0.128 -0.893,0.002l-11.533,16.413l11.488,16.347c0.131,-0.075 0.288,-0.075 0.618,-0.055c0.13,0.024 0.236,0.042 0.341,0.092l11.513,-16.384l-11.534,-16.415Zm-26.526,0.001c-0.282,0.123 -0.609,0.125 -0.893,0.001l-11.533,16.413l11.487,16.347c0.132,-0.075 0.289,-0.075 0.619,-0.055c0.13,0.024 0.236,0.042 0.341,0.092l11.513,-16.384l-11.534,-16.414Zm53.055,0.002c-0.282,0.126 -0.61,0.131 -0.897,0.002l-11.531,16.41l11.487,16.347c0.132,-0.075 0.289,-0.075 0.618,-0.055c0.131,0.024 0.237,0.042 0.342,0.092l11.513,-16.384l-11.532,-16.412Zm26.524,-0.003c-0.28,0.123 -0.608,0.127 -0.893,0.002l-11.533,16.413l11.487,16.347c0.132,-0.075 0.289,-0.075 0.619,-0.055c0.13,0.024 0.236,0.042 0.341,0.092l11.513,-16.384l-11.534,-16.415Zm-104.727,-1.69l11.439,16.278l11.439,-16.278l-11.439,-16.279l-11.439,16.279Zm-238.738,0l11.438,16.278l11.439,-16.278l-11.439,-16.279l-11.438,16.279Zm371.37,0l11.439,16.278l11.439,-16.278l-11.439,-16.279l-11.439,16.279Zm-344.844,0l11.439,16.278l11.439,-16.278l-11.439,-16.279l-11.439,16.279Zm79.579,0l11.439,16.278l11.439,-16.278l-11.439,-16.279l-11.439,16.279Zm-53.052,0l11.438,16.278l11.439,-16.278l-11.439,-16.279l-11.438,16.279Zm132.632,0l11.439,16.278l11.438,-16.278l-11.438,-16.279l-11.439,16.279Zm159.159,0l11.439,16.278l11.438,-16.278l-11.438,-16.279l-11.439,16.279Zm-26.527,0l11.439,16.278l11.439,-16.278l-11.439,-16.279l-11.439,16.279Zm-238.738,0l11.439,16.278l11.439,-16.278l-11.439,-16.279l-11.439,16.279Zm53.053,0l11.439,16.278l11.439,-16.278l-11.439,-16.279l-11.439,16.279Zm26.526,0l11.439,16.278l11.439,-16.278l-11.439,-16.279l-11.439,16.279Zm106.106,0l11.439,16.278l11.439,-16.278l-11.439,-16.279l-11.439,16.279Zm-53.053,0l11.439,16.278l11.439,-16.278l-11.439,-16.279l-11.439,16.279Zm79.58,0l11.439,16.278l11.439,-16.278l-11.439,-16.279l-11.439,16.279Zm-266.641,-34.516c-0.282,0.127 -0.61,0.134 -0.899,0.002l-11.529,16.408l11.487,16.348c0.132,-0.076 0.288,-0.075 0.618,-0.055c0.147,0.027 0.255,0.057 0.341,0.093l11.514,-16.386l-11.532,-16.41Zm132.63,-0.004c-0.281,0.123 -0.608,0.127 -0.893,0.002l-11.533,16.412l11.487,16.348c0.132,-0.076 0.289,-0.075 0.618,-0.055c0.147,0.027 0.256,0.057 0.341,0.093l11.514,-16.386l-11.534,-16.414Zm26.528,0.003c-0.282,0.126 -0.61,0.131 -0.897,0.002l-11.53,16.409l11.486,16.348c0.132,-0.076 0.289,-0.075 0.619,-0.055c0.147,0.027 0.255,0.057 0.341,0.093l11.513,-16.386l-11.532,-16.411Zm26.526,-0.002c-0.282,0.125 -0.609,0.129 -0.895,0.002l-11.532,16.411l11.487,16.348c0.132,-0.076 0.289,-0.075 0.618,-0.055c0.147,0.027 0.256,0.057 0.341,0.093l11.514,-16.386l-11.533,-16.413Zm-79.579,0.002c-0.282,0.126 -0.609,0.131 -0.897,0.002l-11.53,16.409l11.487,16.348c0.131,-0.076 0.288,-0.075 0.618,-0.055c0.147,0.027 0.255,0.057 0.341,0.093l11.514,-16.386l-11.533,-16.411Zm-26.527,-0.002c-0.282,0.125 -0.609,0.129 -0.895,0.002l-11.532,16.411l11.487,16.348c0.132,-0.076 0.289,-0.075 0.619,-0.055c0.146,0.027 0.255,0.057 0.34,0.093l11.514,-16.386l-11.533,-16.413Zm-106.106,0c-0.282,0.125 -0.609,0.129 -0.895,0.002l-11.532,16.411l11.487,16.348c0.132,-0.076 0.289,-0.075 0.619,-0.055c0.146,0.027 0.255,0.057 0.341,0.093l11.513,-16.386l-11.533,-16.413Zm318.316,-0.002c-0.281,0.122 -0.608,0.125 -0.891,0.002l-11.534,16.413l11.487,16.348c0.132,-0.076 0.289,-0.075 0.618,-0.055c0.147,0.027 0.256,0.057 0.341,0.093l11.514,-16.386l-11.535,-16.415Zm-53.052,0.001c-0.281,0.123 -0.608,0.127 -0.893,0.002l-11.533,16.412l11.487,16.348c0.132,-0.076 0.289,-0.075 0.619,-0.055c0.146,0.027 0.255,0.057 0.34,0.093l11.514,-16.386l-11.534,-16.414Zm26.528,0.003c-0.282,0.126 -0.609,0.131 -0.897,0.002l-11.531,16.409l11.488,16.348c0.131,-0.076 0.288,-0.075 0.618,-0.055c0.147,0.027 0.255,0.057 0.341,0.093l11.513,-16.386l-11.532,-16.411Zm-53.053,0c-0.282,0.126 -0.61,0.131 -0.897,0.002l-11.53,16.409l11.486,16.348c0.132,-0.076 0.289,-0.075 0.619,-0.055c0.13,0.024 0.236,0.042 0.341,0.092l11.513,-16.385l-11.532,-16.411Zm-185.687,-0.003c-0.282,0.124 -0.609,0.126 -0.893,0.001l-11.533,16.413l11.487,16.348c0.132,-0.076 0.289,-0.075 0.619,-0.055c0.13,0.024 0.236,0.042 0.341,0.092l11.513,-16.385l-11.534,-16.414Zm26.528,0.003c-0.282,0.126 -0.609,0.131 -0.897,0.002l-11.53,16.409l11.487,16.348c0.131,-0.076 0.288,-0.075 0.618,-0.055c0.13,0.024 0.236,0.042 0.341,0.092l11.514,-16.385l-11.533,-16.411Zm291.79,-0.003c-0.281,0.123 -0.608,0.127 -0.893,0.002l-11.533,16.412l11.487,16.348c0.132,-0.076 0.289,-0.075 0.618,-0.055c0.131,0.024 0.237,0.042 0.342,0.092l11.513,-16.385l-11.534,-16.414Zm26.526,0c-0.281,0.123 -0.608,0.127 -0.893,0.002l-11.533,16.412l11.487,16.348c0.132,-0.076 0.289,-0.075 0.619,-0.055c0.13,0.024 0.236,0.042 0.341,0.092l11.513,-16.385l-11.534,-16.414Zm-53.05,0.004c-0.282,0.127 -0.61,0.134 -0.899,0.002l-11.53,16.408l11.487,16.348c0.132,-0.076 0.289,-0.075 0.619,-0.055c0.13,0.024 0.236,0.042 0.341,0.092l11.513,-16.385l-11.531,-16.41Zm-104.73,-1.695l11.439,16.279l11.439,-16.279l-11.439,-16.278l-11.439,16.278Zm-238.738,0l11.438,16.279l11.439,-16.279l-11.439,-16.278l-11.438,16.278Zm53.053,0l11.438,16.279l11.439,-16.279l-11.439,-16.278l-11.438,16.278Zm318.317,0l11.439,16.279l11.439,-16.279l-11.439,-16.278l-11.439,16.278Zm-53.053,0l11.439,16.279l11.439,-16.279l-11.439,-16.278l-11.439,16.278Zm-212.212,0l11.439,16.279l11.439,-16.279l-11.439,-16.278l-11.439,16.278Zm79.58,0l11.439,16.279l11.438,-16.279l-11.438,-16.278l-11.439,16.278Zm-26.527,0l11.439,16.279l11.439,-16.279l-11.439,-16.278l-11.439,16.278Zm185.686,0l11.439,16.279l11.438,-16.279l-11.438,-16.278l-11.439,16.278Zm-79.58,0l11.439,16.279l11.439,-16.279l-11.439,-16.278l-11.439,16.278Zm-132.632,0l11.439,16.279l11.439,-16.279l-11.439,-16.278l-11.439,16.278Zm-106.106,0l11.439,16.279l11.439,-16.279l-11.439,-16.278l-11.439,16.278Zm185.685,0l11.439,16.279l11.439,-16.279l-11.439,-16.278l-11.439,16.278Zm-132.632,0l11.439,16.279l11.439,-16.279l-11.439,-16.278l-11.439,16.278Zm212.212,0l11.439,16.279l11.439,-16.279l-11.439,-16.278l-11.439,16.278Zm-266.641,-34.516c-0.282,0.128 -0.61,0.135 -0.899,0.003l-11.529,16.408l11.487,16.348c0.132,-0.076 0.288,-0.075 0.618,-0.055c0.147,0.026 0.255,0.057 0.341,0.093l11.514,-16.386l-11.532,-16.411Zm132.63,-0.003c-0.281,0.122 -0.608,0.127 -0.893,0.002l-11.533,16.412l11.487,16.348c0.132,-0.076 0.289,-0.075 0.618,-0.055c0.147,0.026 0.256,0.057 0.341,0.093l11.514,-16.386l-11.534,-16.414Zm26.528,0.002c-0.282,0.127 -0.61,0.132 -0.897,0.003l-11.53,16.409l11.486,16.348c0.132,-0.076 0.289,-0.075 0.619,-0.055c0.147,0.026 0.255,0.057 0.341,0.093l11.513,-16.386l-11.532,-16.412Zm26.526,-0.001c-0.282,0.125 -0.609,0.128 -0.895,0.002l-11.532,16.411l11.487,16.348c0.132,-0.076 0.289,-0.075 0.618,-0.055c0.147,0.026 0.256,0.057 0.341,0.093l11.514,-16.386l-11.533,-16.413Zm-79.581,-0.001c-0.28,0.123 -0.607,0.127 -0.893,0.002l-11.532,16.412l11.487,16.348c0.131,-0.076 0.288,-0.075 0.618,-0.055c0.147,0.026 0.255,0.057 0.341,0.093l11.514,-16.386l-11.535,-16.414Zm-26.526,0c-0.281,0.123 -0.608,0.127 -0.893,0.002l-11.533,16.412l11.487,16.348c0.132,-0.076 0.289,-0.075 0.619,-0.055c0.146,0.026 0.255,0.057 0.34,0.093l11.514,-16.386l-11.534,-16.414Zm-106.106,0c-0.281,0.123 -0.608,0.127 -0.893,0.002l-11.533,16.412l11.487,16.348c0.132,-0.076 0.289,-0.075 0.619,-0.055c0.146,0.026 0.255,0.057 0.341,0.093l11.513,-16.386l-11.534,-16.414Zm344.846,0.002c-0.282,0.127 -0.61,0.132 -0.897,0.003l-11.531,16.409l11.487,16.348c0.132,-0.076 0.289,-0.075 0.619,-0.055c0.147,0.026 0.255,0.057 0.341,0.093l11.513,-16.386l-11.532,-16.412Zm26.525,-0.002c-0.281,0.122 -0.608,0.127 -0.893,0.002l-11.533,16.412l11.487,16.348c0.132,-0.076 0.289,-0.075 0.618,-0.055c0.147,0.026 0.256,0.057 0.341,0.093l11.514,-16.386l-11.534,-16.414Zm-79.58,0c-0.28,0.123 -0.608,0.127 -0.893,0.002l-11.533,16.412l11.488,16.348c0.131,-0.076 0.288,-0.075 0.618,-0.055c0.147,0.026 0.255,0.057 0.341,0.093l11.513,-16.386l-11.534,-16.414Zm-238.738,0c-0.282,0.124 -0.609,0.126 -0.893,0.001l-11.533,16.413l11.487,16.348c0.132,-0.076 0.289,-0.075 0.619,-0.055c0.13,0.023 0.236,0.042 0.341,0.092l11.513,-16.385l-11.534,-16.414Zm26.527,0c-0.282,0.124 -0.609,0.126 -0.893,0.001l-11.533,16.413l11.487,16.348c0.131,-0.076 0.288,-0.075 0.618,-0.055c0.13,0.023 0.236,0.042 0.341,0.092l11.514,-16.385l-11.534,-16.414Zm159.159,0.001c-0.282,0.125 -0.609,0.128 -0.894,0.002l-11.532,16.411l11.486,16.348c0.132,-0.076 0.289,-0.075 0.619,-0.055c0.13,0.023 0.236,0.042 0.341,0.092l11.513,-16.385l-11.533,-16.413Zm159.158,-0.001c-0.281,0.123 -0.608,0.127 -0.893,0.002l-11.533,16.412l11.487,16.348c0.132,-0.076 0.289,-0.075 0.619,-0.055c0.13,0.023 0.236,0.042 0.341,0.092l11.513,-16.385l-11.534,-16.414Zm-79.579,0c-0.282,0.124 -0.609,0.126 -0.893,0.001l-11.533,16.413l11.487,16.348c0.132,-0.076 0.289,-0.075 0.618,-0.055c0.131,0.023 0.237,0.042 0.342,0.092l11.513,-16.385l-11.534,-16.414Zm-53.052,0.001c-0.282,0.125 -0.609,0.128 -0.895,0.002l-11.532,16.411l11.487,16.348c0.132,-0.076 0.289,-0.075 0.619,-0.055c0.13,0.023 0.236,0.042 0.341,0.092l11.513,-16.385l-11.533,-16.413Zm-25.149,-1.692l11.439,16.279l11.439,-16.279l-11.439,-16.279l-11.439,16.279Zm-238.738,0l11.438,16.279l11.439,-16.279l-11.439,-16.279l-11.438,16.279Zm371.37,0l11.439,16.279l11.439,-16.279l-11.439,-16.279l-11.439,16.279Zm-26.526,0l11.439,16.279l11.438,-16.279l-11.438,-16.279l-11.439,16.279Zm-26.527,0l11.439,16.279l11.439,-16.279l-11.439,-16.279l-11.439,16.279Zm-132.632,0l11.439,16.279l11.438,-16.279l-11.438,-16.279l-11.439,16.279Zm26.526,0l11.439,16.279l11.439,-16.279l-11.439,-16.279l-11.439,16.279Zm-132.632,0l11.439,16.279l11.439,-16.279l-11.439,-16.279l-11.439,16.279Zm26.526,0l11.439,16.279l11.439,-16.279l-11.439,-16.279l-11.439,16.279Zm-53.052,0l11.438,16.279l11.439,-16.279l-11.439,-16.279l-11.438,16.279Zm212.212,0l11.438,16.279l11.439,-16.279l-11.439,-16.279l-11.438,16.279Zm-132.633,0l11.439,16.279l11.439,-16.279l-11.439,-16.279l-11.439,16.279Zm-106.106,0l11.439,16.279l11.439,-16.279l-11.439,-16.279l-11.439,16.279Zm132.632,0l11.439,16.279l11.439,-16.279l-11.439,-16.279l-11.439,16.279Zm132.633,0l11.439,16.279l11.439,-16.279l-11.439,-16.279l-11.439,16.279Zm-266.642,-34.517c-0.282,0.127 -0.609,0.132 -0.896,0.002l-11.531,16.41l11.487,16.347c0.131,-0.075 0.288,-0.074 0.618,-0.054c0.147,0.026 0.255,0.056 0.341,0.092l11.514,-16.385l-11.533,-16.412Zm26.525,-0.002c-0.281,0.122 -0.608,0.127 -0.893,0.002l-11.533,16.412l11.487,16.347c0.132,-0.075 0.289,-0.074 0.619,-0.054c0.146,0.026 0.255,0.056 0.34,0.092l11.514,-16.385l-11.534,-16.414Zm-53.053,0c-0.281,0.122 -0.608,0.127 -0.893,0.002l-11.533,16.412l11.487,16.347c0.132,-0.075 0.289,-0.074 0.619,-0.054c0.146,0.026 0.255,0.056 0.341,0.092l11.513,-16.385l-11.534,-16.414Zm318.319,0.001c-0.282,0.125 -0.609,0.128 -0.895,0.002l-11.532,16.411l11.487,16.347c0.132,-0.075 0.289,-0.074 0.618,-0.054c0.147,0.026 0.256,0.056 0.341,0.092l11.514,-16.385l-11.533,-16.413Zm26.526,0c-0.282,0.125 -0.609,0.128 -0.894,0.002l-11.533,16.411l11.487,16.347c0.132,-0.075 0.289,-0.074 0.619,-0.054c0.147,0.026 0.255,0.056 0.341,0.092l11.513,-16.385l-11.533,-16.413Zm-79.578,0.001c-0.282,0.127 -0.61,0.132 -0.897,0.002l-11.531,16.41l11.487,16.347c0.132,-0.075 0.289,-0.074 0.619,-0.054c0.146,0.026 0.255,0.056 0.34,0.092l11.514,-16.385l-11.532,-16.412Zm-53.055,-0.002c-0.281,0.122 -0.608,0.127 -0.893,0.002l-11.533,16.412l11.487,16.347c0.132,-0.075 0.289,-0.074 0.618,-0.054c0.131,0.023 0.237,0.042 0.342,0.092l11.513,-16.385l-11.534,-16.414Zm-53.051,0.003c-0.281,0.128 -0.609,0.135 -0.898,0.003l-11.53,16.408l11.487,16.347c0.132,-0.075 0.289,-0.074 0.618,-0.054c0.131,0.023 0.237,0.042 0.342,0.092l11.513,-16.385l-11.532,-16.411Zm79.579,-0.001c-0.282,0.127 -0.61,0.132 -0.897,0.002l-11.53,16.41l11.486,16.347c0.132,-0.075 0.289,-0.074 0.619,-0.054c0.13,0.023 0.236,0.042 0.341,0.092l11.513,-16.385l-11.532,-16.412Zm-106.105,0.001c-0.282,0.128 -0.61,0.135 -0.899,0.003l-11.529,16.408l11.486,16.347c0.132,-0.075 0.289,-0.074 0.619,-0.054c0.13,0.023 0.236,0.042 0.341,0.092l11.514,-16.385l-11.532,-16.411Zm-53.056,-0.003c-0.28,0.122 -0.607,0.127 -0.893,0.002l-11.532,16.412l11.487,16.347c0.131,-0.075 0.288,-0.074 0.618,-0.054c0.13,0.023 0.236,0.042 0.342,0.092l11.513,-16.385l-11.535,-16.414Zm106.106,0c-0.28,0.123 -0.608,0.127 -0.893,0.002l-11.532,16.412l11.486,16.347c0.132,-0.075 0.289,-0.074 0.619,-0.054c0.13,0.023 0.236,0.042 0.341,0.092l11.513,-16.385l-11.534,-16.414Zm-79.577,0.003c-0.281,0.128 -0.609,0.135 -0.898,0.003l-11.53,16.408l11.487,16.347c0.132,-0.075 0.289,-0.074 0.619,-0.054c0.13,0.023 0.236,0.042 0.341,0.092l11.513,-16.385l-11.532,-16.411Zm265.265,0c-0.281,0.128 -0.61,0.135 -0.898,0.003l-11.53,16.408l11.487,16.347c0.132,-0.075 0.289,-0.074 0.618,-0.054c0.131,0.023 0.237,0.042 0.342,0.092l11.513,-16.385l-11.532,-16.411Zm26.524,-0.003c-0.281,0.123 -0.608,0.127 -0.893,0.002l-11.533,16.412l11.487,16.347c0.132,-0.075 0.289,-0.074 0.619,-0.054c0.13,0.023 0.236,0.042 0.341,0.092l11.513,-16.385l-11.534,-16.414Zm-106.106,0c-0.28,0.123 -0.608,0.127 -0.893,0.002l-11.533,16.412l11.487,16.347c0.132,-0.075 0.289,-0.074 0.619,-0.054c0.13,0.023 0.236,0.042 0.341,0.092l11.513,-16.385l-11.534,-16.414Zm-51.674,-1.691l11.439,16.279l11.439,-16.279l-11.439,-16.279l-11.439,16.279Zm-238.738,0l11.438,16.279l11.439,-16.279l-11.439,-16.279l-11.438,16.279Zm26.526,0l11.439,16.279l11.439,-16.279l-11.439,-16.279l-11.439,16.279Zm291.791,0l11.439,16.279l11.439,-16.279l-11.439,-16.279l-11.439,16.279Zm26.527,0l11.439,16.279l11.438,-16.279l-11.438,-16.279l-11.439,16.279Zm-159.159,0l11.439,16.279l11.438,-16.279l-11.438,-16.279l-11.439,16.279Zm79.579,0l11.439,16.279l11.439,-16.279l-11.439,-16.279l-11.439,16.279Zm-212.211,0l11.438,16.279l11.439,-16.279l-11.439,-16.279l-11.438,16.279Zm26.526,0l11.439,16.279l11.439,-16.279l-11.439,-16.279l-11.439,16.279Zm26.526,0l11.439,16.279l11.439,-16.279l-11.439,-16.279l-11.439,16.279Zm26.527,0l11.439,16.279l11.439,-16.279l-11.439,-16.279l-11.439,16.279Zm79.579,0l11.439,16.279l11.439,-16.279l-11.439,-16.279l-11.439,16.279Zm159.159,0l11.439,16.279l11.439,-16.279l-11.439,-16.279l-11.439,16.279Zm-212.212,0l11.439,16.279l11.439,-16.279l-11.439,-16.279l-11.439,16.279Zm132.633,0l11.439,16.279l11.439,-16.279l-11.439,-16.279l-11.439,16.279Zm-54.432,-34.519c-0.281,0.122 -0.608,0.127 -0.893,0.001l-11.532,16.413l11.486,16.347c0.132,-0.075 0.289,-0.074 0.619,-0.055c0.147,0.027 0.255,0.057 0.341,0.093l11.513,-16.385l-11.534,-16.414Zm132.633,0c-0.281,0.123 -0.608,0.127 -0.893,0.002l-11.533,16.412l11.487,16.347c0.132,-0.075 0.289,-0.074 0.618,-0.055c0.147,0.027 0.256,0.057 0.341,0.093l11.514,-16.385l-11.534,-16.414Zm-106.106,0c-0.281,0.123 -0.608,0.127 -0.893,0.002l-11.533,16.412l11.487,16.347c0.132,-0.075 0.289,-0.074 0.619,-0.055c0.146,0.027 0.255,0.057 0.34,0.093l11.514,-16.385l-11.534,-16.414Zm53.053,-0.001c-0.281,0.123 -0.608,0.127 -0.893,0.002l-11.533,16.413l11.487,16.347c0.132,-0.075 0.289,-0.074 0.618,-0.055c0.147,0.027 0.256,0.057 0.341,0.093l11.514,-16.385l-11.534,-16.415Zm79.582,0.004c-0.282,0.128 -0.61,0.135 -0.899,0.003l-11.53,16.408l11.487,16.347c0.132,-0.075 0.289,-0.074 0.619,-0.055c0.147,0.027 0.255,0.057 0.341,0.093l11.513,-16.385l-11.531,-16.411Zm-371.374,-0.004c-0.28,0.123 -0.607,0.127 -0.892,0.002l-11.533,16.413l11.487,16.347c0.132,-0.075 0.288,-0.074 0.618,-0.055c0.13,0.024 0.236,0.043 0.342,0.092l11.513,-16.384l-11.535,-16.415Zm26.528,0.002c-0.282,0.124 -0.609,0.128 -0.895,0.001l-11.532,16.412l11.487,16.347c0.132,-0.075 0.289,-0.074 0.619,-0.055c0.13,0.024 0.236,0.043 0.341,0.092l11.513,-16.384l-11.533,-16.413Zm79.578,-0.002c-0.281,0.122 -0.608,0.124 -0.892,0.001l-11.533,16.414l11.487,16.347c0.131,-0.075 0.288,-0.074 0.618,-0.055c0.13,0.024 0.236,0.043 0.341,0.092l11.514,-16.384l-11.535,-16.415Zm-53.053,0c-0.281,0.122 -0.608,0.124 -0.892,0.001l-11.533,16.414l11.487,16.347c0.131,-0.075 0.288,-0.074 0.618,-0.055c0.13,0.024 0.236,0.043 0.341,0.092l11.514,-16.384l-11.535,-16.415Zm79.579,0c-0.281,0.122 -0.608,0.124 -0.891,0.001l-11.534,16.414l11.487,16.347c0.132,-0.075 0.289,-0.074 0.618,-0.055c0.131,0.024 0.237,0.043 0.342,0.092l11.513,-16.384l-11.535,-16.415Zm26.528,0.002c-0.282,0.124 -0.609,0.128 -0.894,0.001l-11.532,16.412l11.486,16.347c0.132,-0.075 0.289,-0.074 0.619,-0.055c0.13,0.024 0.236,0.043 0.341,0.092l11.513,-16.384l-11.533,-16.413Zm-79.58,-0.002c-0.281,0.123 -0.608,0.127 -0.893,0.002l-11.533,16.413l11.487,16.347c0.132,-0.075 0.289,-0.074 0.619,-0.055c0.13,0.024 0.236,0.043 0.341,0.092l11.513,-16.384l-11.534,-16.415Zm106.108,0.003c-0.282,0.126 -0.61,0.131 -0.897,0.002l-11.531,16.41l11.487,16.347c0.132,-0.075 0.289,-0.074 0.618,-0.055c0.131,0.024 0.237,0.043 0.342,0.092l11.513,-16.384l-11.532,-16.412Zm-212.214,-0.002c-0.281,0.123 -0.608,0.127 -0.893,0.002l-11.533,16.412l11.487,16.347c0.132,-0.075 0.289,-0.074 0.619,-0.055c0.13,0.024 0.236,0.043 0.341,0.092l11.513,-16.384l-11.534,-16.414Zm291.791,0c-0.28,0.123 -0.608,0.127 -0.893,0.002l-11.533,16.412l11.488,16.347c0.131,-0.075 0.288,-0.074 0.618,-0.055c0.13,0.024 0.236,0.043 0.341,0.092l11.513,-16.384l-11.534,-16.414Zm53.054,0.001c-0.282,0.124 -0.609,0.128 -0.894,0.001l-11.533,16.412l11.487,16.347c0.132,-0.075 0.289,-0.074 0.619,-0.055c0.13,0.024 0.236,0.043 0.341,0.092l11.513,-16.384l-11.533,-16.413Zm-104.728,-1.692l11.439,16.279l11.439,-16.279l-11.439,-16.279l-11.439,16.279Zm-238.738,0l11.438,16.279l11.439,-16.279l-11.439,-16.279l-11.438,16.279Zm185.685,0l11.439,16.279l11.438,-16.279l-11.438,-16.279l-11.439,16.279Zm-79.58,0l11.439,16.279l11.439,-16.279l-11.439,-16.279l-11.439,16.279Zm-53.052,0l11.438,16.279l11.439,-16.279l-11.439,-16.279l-11.438,16.279Zm318.317,0l11.439,16.279l11.439,-16.279l-11.439,-16.279l-11.439,16.279Zm-344.844,0l11.439,16.279l11.439,-16.279l-11.439,-16.279l-11.439,16.279Zm265.265,0l11.439,16.279l11.439,-16.279l-11.439,-16.279l-11.439,16.279Zm-79.58,0l11.439,16.279l11.439,-16.279l-11.439,-16.279l-11.439,16.279Zm132.633,0l11.439,16.279l11.438,-16.279l-11.438,-16.279l-11.439,16.279Zm-185.686,0l11.439,16.279l11.439,-16.279l-11.439,-16.279l-11.439,16.279Zm106.106,0l11.439,16.279l11.439,-16.279l-11.439,-16.279l-11.439,16.279Zm-185.685,0l11.439,16.279l11.439,-16.279l-11.439,-16.279l-11.439,16.279Zm53.053,0l11.439,16.279l11.439,-16.279l-11.439,-16.279l-11.439,16.279Zm185.685,0l11.439,16.279l11.439,-16.279l-11.439,-16.279l-11.439,16.279Zm-160.536,-34.518c-0.282,0.124 -0.609,0.128 -0.895,0.001l-11.532,16.412l11.487,16.347c0.132,-0.075 0.289,-0.074 0.618,-0.055c0.147,0.027 0.256,0.057 0.341,0.093l11.514,-16.385l-11.533,-16.413Zm26.526,0c-0.282,0.124 -0.609,0.128 -0.894,0.001l-11.532,16.412l11.486,16.347c0.132,-0.075 0.289,-0.074 0.619,-0.055c0.147,0.027 0.255,0.057 0.341,0.093l11.513,-16.385l-11.533,-16.413Zm53.053,0c-0.282,0.124 -0.609,0.128 -0.894,0.001l-11.532,16.412l11.486,16.347c0.132,-0.075 0.289,-0.074 0.619,-0.055c0.147,0.027 0.255,0.057 0.341,0.093l11.513,-16.385l-11.533,-16.413Zm-159.16,-0.002c-0.28,0.123 -0.607,0.128 -0.893,0.002l-11.532,16.413l11.487,16.347c0.131,-0.075 0.288,-0.074 0.618,-0.055c0.147,0.027 0.255,0.057 0.341,0.093l11.514,-16.385l-11.535,-16.415Zm-79.579,0c-0.281,0.123 -0.608,0.128 -0.893,0.002l-11.533,16.413l11.487,16.347c0.132,-0.075 0.289,-0.074 0.619,-0.055c0.146,0.027 0.255,0.057 0.341,0.093l11.513,-16.385l-11.534,-16.415Zm291.791,0c-0.28,0.123 -0.608,0.128 -0.893,0.002l-11.533,16.413l11.488,16.347c0.131,-0.075 0.288,-0.074 0.618,-0.055c0.147,0.027 0.255,0.057 0.341,0.093l11.513,-16.385l-11.534,-16.415Zm-26.526,0c-0.281,0.123 -0.608,0.128 -0.893,0.002l-11.533,16.413l11.487,16.347c0.132,-0.075 0.289,-0.074 0.619,-0.055c0.146,0.027 0.255,0.057 0.34,0.093l11.514,-16.385l-11.534,-16.415Zm53.055,0.003c-0.282,0.126 -0.61,0.131 -0.897,0.002l-11.531,16.41l11.487,16.347c0.132,-0.075 0.289,-0.074 0.618,-0.055c0.147,0.027 0.256,0.057 0.341,0.093l11.514,-16.385l-11.532,-16.412Zm-291.794,-0.003c-0.28,0.123 -0.607,0.128 -0.893,0.002l-11.532,16.413l11.487,16.347c0.132,-0.075 0.288,-0.074 0.618,-0.055c0.13,0.024 0.236,0.042 0.342,0.092l11.513,-16.384l-11.535,-16.415Zm106.108,0.003c-0.282,0.126 -0.609,0.131 -0.897,0.002l-11.53,16.41l11.487,16.347c0.131,-0.075 0.288,-0.074 0.618,-0.055c0.13,0.024 0.236,0.042 0.341,0.092l11.514,-16.384l-11.533,-16.412Zm-79.581,-0.002c-0.282,0.123 -0.609,0.125 -0.893,0.001l-11.533,16.413l11.487,16.347c0.132,-0.075 0.289,-0.074 0.619,-0.055c0.13,0.024 0.236,0.042 0.341,0.092l11.513,-16.384l-11.534,-16.414Zm53.054,0.001c-0.282,0.124 -0.609,0.128 -0.895,0.001l-11.532,16.412l11.487,16.347c0.132,-0.075 0.289,-0.074 0.619,-0.055c0.13,0.024 0.236,0.042 0.341,0.092l11.513,-16.384l-11.533,-16.413Zm106.106,0c-0.282,0.124 -0.609,0.128 -0.895,0.001l-11.532,16.412l11.487,16.347c0.132,-0.075 0.289,-0.074 0.618,-0.055c0.131,0.024 0.237,0.042 0.342,0.092l11.513,-16.384l-11.533,-16.413Zm159.158,-0.002c-0.281,0.123 -0.608,0.128 -0.893,0.002l-11.533,16.413l11.487,16.347c0.132,-0.075 0.289,-0.074 0.618,-0.055c0.131,0.024 0.237,0.042 0.342,0.092l11.513,-16.384l-11.534,-16.415Zm26.526,0c-0.281,0.123 -0.608,0.128 -0.893,0.002l-11.533,16.413l11.487,16.347c0.132,-0.075 0.289,-0.074 0.619,-0.055c0.13,0.024 0.236,0.042 0.341,0.092l11.513,-16.384l-11.534,-16.415Zm-53.053,0c-0.28,0.123 -0.608,0.127 -0.893,0.002l-11.533,16.413l11.487,16.347c0.132,-0.075 0.289,-0.074 0.619,-0.055c0.13,0.024 0.236,0.042 0.341,0.092l11.513,-16.384l-11.534,-16.415Zm-104.727,-1.69l11.439,16.278l11.439,-16.278l-11.439,-16.279l-11.439,16.279Zm-238.738,0l11.438,16.278l11.439,-16.278l-11.439,-16.279l-11.438,16.279Zm106.105,0l11.439,16.278l11.439,-16.278l-11.439,-16.279l-11.439,16.279Zm265.265,0l11.439,16.278l11.439,-16.278l-11.439,-16.279l-11.439,16.279Zm-53.053,0l11.439,16.278l11.439,-16.278l-11.439,-16.279l-11.439,16.279Zm-185.685,0l11.439,16.278l11.439,-16.278l-11.439,-16.279l-11.439,16.279Zm53.053,0l11.439,16.278l11.438,-16.278l-11.438,-16.279l-11.439,16.279Zm159.159,0l11.439,16.278l11.438,-16.278l-11.438,-16.279l-11.439,16.279Zm-265.265,0l11.439,16.278l11.439,-16.278l-11.439,-16.279l-11.439,16.279Zm79.579,0l11.439,16.278l11.439,-16.278l-11.439,-16.279l-11.439,16.279Zm-106.105,0l11.438,16.278l11.439,-16.278l-11.439,-16.279l-11.438,16.279Zm212.211,0l11.439,16.278l11.439,-16.278l-11.439,-16.279l-11.439,16.279Zm-238.738,0l11.439,16.278l11.439,-16.278l-11.439,-16.279l-11.439,16.279Zm185.685,0l11.439,16.278l11.439,-16.278l-11.439,-16.279l-11.439,16.279Zm79.58,0l11.439,16.278l11.439,-16.278l-11.439,-16.279l-11.439,16.279Zm-130.628,-29.706l-7.665,0.011l-8.144,11.59l11.487,16.347c0.132,-0.076 0.289,-0.075 0.618,-0.055c0.147,0.027 0.256,0.057 0.341,0.093l11.514,-16.385l-8.151,-11.601Zm26.5,-0.037l-7.612,0.011l-8.17,11.627l11.486,16.347c0.132,-0.076 0.289,-0.075 0.619,-0.055c0.147,0.027 0.255,0.057 0.341,0.093l11.513,-16.385l-8.177,-11.638Zm-132.5,0.188l-7.877,0.011l-8.038,11.439l11.487,16.347c0.132,-0.076 0.289,-0.075 0.619,-0.055c0.146,0.027 0.255,0.057 0.34,0.093l11.514,-16.385l-8.045,-11.45Zm26.5,-0.038l-7.824,0.011l-8.064,11.477l11.487,16.347c0.131,-0.076 0.288,-0.075 0.618,-0.055c0.147,0.027 0.255,0.057 0.341,0.093l11.514,-16.385l-8.072,-11.488Zm-79.5,0.113l-7.983,0.012l-7.985,11.363l11.487,16.347c0.132,-0.076 0.289,-0.075 0.619,-0.055c0.146,0.027 0.255,0.057 0.341,0.093l11.513,-16.385l-7.992,-11.375Zm318,-0.451l-7.348,0.01l-8.302,11.816l11.487,16.347c0.132,-0.076 0.289,-0.075 0.618,-0.055c0.147,0.027 0.256,0.057 0.341,0.093l11.514,-16.385l-8.31,-11.826Zm26.5,-0.038l-7.295,0.01l-8.329,11.854l11.487,16.347c0.132,-0.076 0.289,-0.075 0.619,-0.055c0.147,0.027 0.255,0.057 0.341,0.093l11.513,-16.385l-8.336,-11.864Zm-79.5,0.113l-7.453,0.011l-8.25,11.74l11.487,16.347c0.132,-0.076 0.289,-0.075 0.619,-0.055c0.146,0.027 0.255,0.057 0.34,0.093l11.514,-16.385l-8.257,-11.751Zm26.5,-0.038l-7.4,0.011l-8.277,11.778l11.488,16.347c0.131,-0.076 0.288,-0.075 0.618,-0.055c0.147,0.027 0.255,0.057 0.341,0.093l11.513,-16.385l-8.283,-11.789Zm-265,0.377l-7.93,0.011l-8.011,11.401l11.487,16.347c0.132,-0.076 0.288,-0.075 0.618,-0.055c0.13,0.024 0.236,0.042 0.342,0.092l11.513,-16.384l-8.019,-11.412Zm106,-0.151l-7.718,0.011l-8.117,11.552l11.487,16.347c0.131,-0.076 0.288,-0.075 0.618,-0.055c0.13,0.024 0.236,0.042 0.341,0.092l11.514,-16.384l-8.125,-11.563Zm-26.5,0.038l-7.771,0.011l-8.091,11.514l11.487,16.347c0.132,-0.076 0.289,-0.075 0.619,-0.055c0.13,0.024 0.236,0.042 0.341,0.092l11.513,-16.384l-8.098,-11.525Zm106,-0.151l-7.56,0.011l-8.196,11.665l11.487,16.347c0.132,-0.076 0.289,-0.075 0.618,-0.055c0.131,0.024 0.237,0.042 0.342,0.092l11.513,-16.384l-8.204,-11.676Zm26.5,-0.037l-7.507,0.01l-8.222,11.703l11.486,16.347c0.132,-0.076 0.289,-0.075 0.619,-0.055c0.13,0.024 0.236,0.042 0.341,0.092l11.513,-16.384l-8.23,-11.713Zm132.5,-0.189l-7.242,0.011l-8.355,11.891l11.487,16.347c0.132,-0.076 0.289,-0.075 0.618,-0.055c0.131,0.024 0.237,0.042 0.342,0.092l11.513,-16.384l-8.363,-11.902Zm26.5,-0.037l-7.189,0.01l-8.382,11.929l11.487,16.347c0.132,-0.076 0.289,-0.075 0.619,-0.055c0.13,0.024 0.236,0.042 0.341,0.092l11.513,-16.384l-8.389,-11.939Zm-156.436,0.222l6.95,9.89l6.963,-9.91l-13.913,0.02Zm-238.5,0.339l6.711,9.551l6.726,-9.57l-13.437,0.019Zm185.5,-0.264l6.897,9.815l6.91,-9.834l-13.807,0.019Zm132.5,-0.188l7.029,10.003l7.043,-10.023l-14.072,0.02Zm26.5,-0.038l7.056,10.041l7.069,-10.061l-14.125,0.02Zm26.5,-0.037l7.082,10.078l7.096,-10.098l-14.178,0.02Zm-212,0.301l6.87,9.777l6.884,-9.797l-13.754,0.02Zm-132.5,0.188l6.738,9.589l6.752,-9.608l-13.49,0.019Zm26.5,-0.038l6.764,9.627l6.779,-9.646l-13.543,0.019Zm26.5,-0.037l6.791,9.664l6.805,-9.684l-13.596,0.02Zm185.5,-0.264l6.976,9.928l6.99,-9.947l-13.966,0.019Zm-159,0.226l6.817,9.702l6.831,-9.721l-13.648,0.019Zm26.5,-0.038l6.844,9.74l6.857,-9.759l-13.701,0.019Zm79.5,-0.112l6.923,9.852l6.937,-9.872l-13.86,0.02Zm79.5,-0.113l7.003,9.965l7.016,-9.985l-14.019,0.02Zm-300.57,-1.674l5.031,-0.007l-2.513,-3.576l-2.518,3.583Zm26.553,-0.037l4.978,-0.007l-2.486,-3.539l-2.492,3.546Zm26.553,-0.038l4.926,-0.007l-2.461,-3.501l-2.465,3.508Zm26.553,-0.038l4.873,-0.007l-2.434,-3.463l-2.439,3.47Zm26.553,-0.037l4.82,-0.007l-2.408,-3.426l-2.412,3.433Zm26.553,-0.038l4.767,-0.007l-2.381,-3.388l-2.386,3.395Zm26.553,-0.038l4.714,-0.006l-2.355,-3.351l-2.359,3.357Zm26.553,-0.037l4.661,-0.007l-2.329,-3.313l-2.332,3.32Zm26.553,-0.038l4.608,-0.007l-2.302,-3.275l-2.306,3.282Zm26.553,-0.038l4.555,-0.006l-2.276,-3.238l-2.279,3.244Zm26.553,-0.038l4.502,-0.006l-2.249,-3.2l-2.253,3.206Zm26.553,-0.037l4.449,-0.007l-2.222,-3.162l-2.227,3.169Zm26.553,-0.038l4.396,-0.006l-2.196,-3.125l-2.2,3.131Zm26.553,-0.038l4.343,-0.006l-2.17,-3.087l-2.173,3.093Zm26.552,-0.037l4.291,-0.006l-2.143,-3.05l-2.148,3.056Zm26.553,-0.038l4.238,-0.006l-2.117,-3.012l-2.121,3.018Z" style="fill:url(#_Linear7);fill-rule:nonzero;"/></g><defs><linearGradient id="_Linear1" x1="0" y1="0" x2="1" y2="0" gradientUnits="userSpaceOnUse" gradientTransform="matrix(280.644,-836.69,836.69,280.644,70.733,817.153)"><stop offset="0" style="stop-color:#695348;stop-opacity:1"/><stop offset="0.47" style="stop-color:#867b6f;stop-opacity:1"/><stop offset="1" style="stop-color:#d3e3d6;stop-opacity:1"/></linearGradient><linearGradient id="_Linear2" x1="0" y1="0" x2="1" y2="0" gradientUnits="userSpaceOnUse" gradientTransform="matrix(228.136,-487.44,487.44,228.136,183.347,517.778)"><stop offset="0" style="stop-color:#4d2c2c;stop-opacity:1"/><stop offset="0.5" style="stop-color:#6f5a57;stop-opacity:1"/><stop offset="1" style="stop-color:#d3e3d6;stop-opacity:1"/></linearGradient><linearGradient id="_Linear3" x1="0" y1="0" x2="1" y2="0" gradientUnits="userSpaceOnUse" gradientTransform="matrix(536.941,-590.707,590.707,536.941,-23.3838,696.753)"><stop offset="0" style="stop-color:#695348;stop-opacity:1"/><stop offset="0.43" style="stop-color:#897f73;stop-opacity:1"/><stop offset="1" style="stop-color:#d3e3d6;stop-opacity:1"/></linearGradient><linearGradient id="_Linear4" x1="0" y1="0" x2="1" y2="0" gradientUnits="userSpaceOnUse" gradientTransform="matrix(117.214,-112.03,112.03,117.214,-12.1851,404.523)"><stop offset="0" style="stop-color:#4d2c2c;stop-opacity:1"/><stop offset="1" style="stop-color:#695348;stop-opacity:1"/></linearGradient><linearGradient id="_Linear5" x1="0" y1="0" x2="1" y2="0" gradientUnits="userSpaceOnUse" gradientTransform="matrix(-681.91,396.395,-396.395,-681.91,617.698,106.046)"><stop offset="0" style="stop-color:#695348;stop-opacity:1"/><stop offset="0.48" style="stop-color:#614940;stop-opacity:1"/><stop offset="1" style="stop-color:#4d2c2c;stop-opacity:1"/></linearGradient><linearGradient id="_Linear6" x1="0" y1="0" x2="1" y2="0" gradientUnits="userSpaceOnUse" gradientTransform="matrix(675.384,-697.835,697.835,675.384,-122.32,656.792)"><stop offset="0" style="stop-color:#4d2c2c;stop-opacity:1"/><stop offset="0.46" style="stop-color:#73605c;stop-opacity:1"/><stop offset="1" style="stop-color:#d3e3d6;stop-opacity:1"/></linearGradient><linearGradient id="_Linear7" x1="0" y1="0" x2="1" y2="0" gradientUnits="userSpaceOnUse" gradientTransform="matrix(425.605,-443.339,443.339,425.605,0.194814,535.298)"><stop offset="0" style="stop-color:#695348;stop-opacity:1"/><stop offset="0.45" style="stop-color:#bdc5b8;stop-opacity:1"/><stop offset="1" style="stop-color:#d3e3d6;stop-opacity:1"/></linearGradient></defs></svg>