<?xml version="1.0" encoding="UTF-8" standalone="no"?><!DOCTYPE svg PUBLIC "-//W3C//DTD SVG 1.1//EN" "http://www.w3.org/Graphics/SVG/1.1/DTD/svg11.dtd"><svg width="100%" height="100%" viewBox="0 0 519 519" version="1.1" xmlns="http://www.w3.org/2000/svg" xmlns:xlink="http://www.w3.org/1999/xlink" xml:space="preserve" xmlns:serif="http://www.serif.com/" style="fill-rule:evenodd;clip-rule:evenodd;stroke-linejoin:round;stroke-miterlimit:2;"><rect id="picket" x="0.019" y="0.013" width="518.4" height="518.4" style="fill:none;"/><g id="fence"><g id="Rails"><path d="M52.045,180.052l0,26.211l419.385,0l0,-26.211l-419.385,0Zm0,128.142l0,26.211l419.385,0l0,-26.211l-419.385,0Z" style="fill:url(#_Linear1);"/><path d="M47.007,208.248l5.038,-1.985l419.385,0l-5.038,1.985l-419.385,0Zm0,128.142l5.038,-1.985l419.385,0l-5.038,1.985l-419.385,0Z" style="fill:url(#_Linear2);"/><path d="M52.045,180.052l0,26.211l-5.038,1.985l0,-26.212l5.038,-1.984Zm0,128.142l0,26.211l-5.038,1.985l0,-26.212l5.038,-1.984Z" style="fill:url(#_Linear3);"/></g><g id="posts"><path d="M115.055,129.613l0,259.2l-44.74,0l0,-259.2l44.74,0Zm340.751,0l0,259.2l-44.74,0l0,-259.2l44.74,0Z" style="fill:url(#_Linear4);"/><path d="M70.315,129.613l-7.683,8.587l0,250.613l7.683,0l0,-259.2Zm340.751,0l-7.684,8.587l0,250.613l7.684,0l0,-259.2Z" style="fill:url(#_Linear5);"/></g><g id="slats"><path d="M378.793,129.613l0,259.2l-16.35,0l0,-246.108c0,-3.472 1.379,-6.802 3.834,-9.258c2.455,-2.455 5.785,-3.834 9.257,-3.834l3.259,0Zm-39.317,0l0,259.2l-16.351,0l0,-246.108c0,-3.472 1.379,-6.802 3.835,-9.258c2.455,-2.455 5.785,-3.834 9.257,-3.834l3.259,0Zm-39.317,0l0,259.2l-16.351,0l0,-246.108c0,-3.472 1.379,-6.802 3.834,-9.258c2.455,-2.455 5.785,-3.834 9.258,-3.834l3.259,0Zm-39.318,0l0,259.2l-16.351,0l0,-246.108c0,-3.472 1.38,-6.802 3.835,-9.258c2.455,-2.455 5.785,-3.834 9.257,-3.834l3.259,0Zm-39.317,0l0,259.2l-16.351,0l0,-246.108c0,-3.472 1.379,-6.802 3.834,-9.258c2.456,-2.455 5.786,-3.834 9.258,-3.834l3.259,0Zm-39.318,0l0,259.2l-16.35,0l0,-246.108c0,-3.472 1.379,-6.802 3.834,-9.258c2.455,-2.455 5.785,-3.834 9.257,-3.834l3.259,0Zm-39.317,0l-3.259,0c-3.472,0 -6.802,1.379 -9.257,3.834c-2.456,2.456 -3.835,5.786 -3.835,9.258l0,246.108l16.351,0l0,-259.2Z" style="fill:url(#_Linear6);"/><path d="M391.899,142.705c0,-3.472 -1.379,-6.802 -3.834,-9.258c-2.456,-2.455 -5.786,-3.834 -9.258,-3.834l-0.027,0c-3.473,0 -6.803,1.379 -9.258,3.834c-2.455,2.456 -3.834,5.786 -3.834,9.258l0,246.108l26.211,0l0,-246.108Zm-39.317,0c0,-3.472 -1.38,-6.802 -3.835,-9.258c-2.455,-2.455 -5.785,-3.834 -9.257,-3.834l-0.028,0c-3.472,0 -6.802,1.379 -9.257,3.834c-2.455,2.456 -3.835,5.786 -3.835,9.258l0,246.108l26.212,0l0,-246.108Zm-39.318,0c0,-3.472 -1.379,-6.802 -3.834,-9.258c-2.455,-2.455 -5.785,-3.834 -9.258,-3.834l-0.027,0c-3.472,0 -6.802,1.379 -9.258,3.834c-2.455,2.456 -3.834,5.786 -3.834,9.258l0,246.108l26.211,0l0,-246.108Zm-39.317,0c0,-3.472 -1.379,-6.802 -3.835,-9.258c-2.455,-2.455 -5.785,-3.834 -9.257,-3.834l-0.028,0c-3.472,0 -6.802,1.379 -9.257,3.834c-2.455,2.456 -3.835,5.786 -3.835,9.258l0,246.108l26.212,0l0,-246.108Zm-39.317,0c0,-3.472 -1.38,-6.802 -3.835,-9.258c-2.455,-2.455 -5.785,-3.834 -9.257,-3.834l-0.028,0c-3.472,0 -6.802,1.379 -9.257,3.834c-2.456,2.456 -3.835,5.786 -3.835,9.258l0,246.108l26.212,0l0,-246.108Zm-39.318,0c0,-3.472 -1.379,-6.802 -3.834,-9.258c-2.456,-2.455 -5.786,-3.834 -9.258,-3.834l-0.027,0c-3.473,0 -6.803,1.379 -9.258,3.834c-2.455,2.456 -3.834,5.786 -3.834,9.258l0,246.108l26.211,0l0,-246.108Zm-39.317,0c0,-3.472 -1.38,-6.802 -3.835,-9.258c-2.455,-2.455 -5.785,-3.834 -9.257,-3.834l-0.028,0c-3.472,0 -6.802,1.379 -9.257,3.834c-2.455,2.456 -3.835,5.786 -3.835,9.258l0,246.108l26.212,0l0,-246.108Z" style="fill:url(#_Linear7);"/></g></g><defs><linearGradient id="_Linear1" x1="0" y1="0" x2="1" y2="0" gradientUnits="userSpaceOnUse" gradientTransform="matrix(536.941,-590.707,590.707,536.941,-18.5219,626.635)"><stop offset="0" style="stop-color:#695348;stop-opacity:1"/><stop offset="0.43" style="stop-color:#897f73;stop-opacity:1"/><stop offset="1" style="stop-color:#d3e3d6;stop-opacity:1"/></linearGradient><linearGradient id="_Linear2" x1="0" y1="0" x2="1" y2="0" gradientUnits="userSpaceOnUse" gradientTransform="matrix(-681.91,396.395,-396.395,-681.91,622.56,35.9286)"><stop offset="0" style="stop-color:#695348;stop-opacity:1"/><stop offset="0.48" style="stop-color:#614940;stop-opacity:1"/><stop offset="1" style="stop-color:#4d2c2c;stop-opacity:1"/></linearGradient><linearGradient id="_Linear3" x1="0" y1="0" x2="1" y2="0" gradientUnits="userSpaceOnUse" gradientTransform="matrix(117.214,-112.03,112.03,117.214,-7.3232,334.405)"><stop offset="0" style="stop-color:#4d2c2c;stop-opacity:1"/><stop offset="1" style="stop-color:#695348;stop-opacity:1"/></linearGradient><linearGradient id="_Linear4" x1="0" y1="0" x2="1" y2="0" gradientUnits="userSpaceOnUse" gradientTransform="matrix(280.644,-836.69,836.69,280.644,70.3149,747.036)"><stop offset="0" style="stop-color:#695348;stop-opacity:1"/><stop offset="0.47" style="stop-color:#867b6f;stop-opacity:1"/><stop offset="1" style="stop-color:#d3e3d6;stop-opacity:1"/></linearGradient><linearGradient id="_Linear5" x1="0" y1="0" x2="1" y2="0" gradientUnits="userSpaceOnUse" gradientTransform="matrix(228.136,-487.44,487.44,228.136,182.929,447.66)"><stop offset="0" style="stop-color:#4d2c2c;stop-opacity:1"/><stop offset="0.5" style="stop-color:#6f5a57;stop-opacity:1"/><stop offset="1" style="stop-color:#d3e3d6;stop-opacity:1"/></linearGradient><linearGradient id="_Linear6" x1="0" y1="0" x2="1" y2="0" gradientUnits="userSpaceOnUse" gradientTransform="matrix(254.026,-479.292,479.292,254.026,157.04,432.324)"><stop offset="0" style="stop-color:#4d2c2c;stop-opacity:1"/><stop offset="0.49" style="stop-color:#705b58;stop-opacity:1"/><stop offset="1" style="stop-color:#d3e3d6;stop-opacity:1"/></linearGradient><linearGradient id="_Linear7" x1="0" y1="0" x2="1" y2="0" gradientUnits="userSpaceOnUse" gradientTransform="matrix(359.984,-659.401,659.401,359.984,111.446,611.396)"><stop offset="0" style="stop-color:#695348;stop-opacity:1"/><stop offset="1" style="stop-color:#d3e3d6;stop-opacity:1"/></linearGradient></defs></svg>