<?xml version="1.0" encoding="UTF-8" standalone="no"?><!DOCTYPE svg PUBLIC "-//W3C//DTD SVG 1.1//EN" "http://www.w3.org/Graphics/SVG/1.1/DTD/svg11.dtd"><svg width="100%" height="100%" viewBox="0 0 519 519" version="1.1" xmlns="http://www.w3.org/2000/svg" xmlns:xlink="http://www.w3.org/1999/xlink" xml:space="preserve" xmlns:serif="http://www.serif.com/" style="fill-rule:evenodd;clip-rule:evenodd;stroke-linejoin:round;stroke-miterlimit:2;"><rect id="skip" x="0.029" y="0.142" width="518.4" height="518.4" style="fill:none;"/><g><path d="M448.441,220.811l-84.177,-84.177" style="fill:none;"/><path d="M346.998,119.368l-43.384,130.417l-184.078,72.51l-43.384,-93.617l29.797,-45.327l211.252,-83.214l29.797,19.231Z" style="fill:url(#_Linear1);"/><path d="M303.614,249.785l43.384,-130.417l101.443,101.443l-43.384,130.417l-101.443,-101.443Z" style="fill:url(#_Linear2);"/><path d="M443.697,216.067l-43.384,130.417l-184.079,72.51l-43.384,-93.617l29.797,-45.327l211.253,-83.215l29.797,19.232Z" style="fill:url(#_Linear3);"/><path d="M395.647,340.045l4.744,4.744l38.294,-115.117l-7.294,2.922l-35.744,107.451Zm-165.033,-51.474l0,-4.648l4.744,-1.868l0,11.261l-4.744,-4.745Zm147.149,-62.611l0,4.648l4.745,4.744l0,-11.261l-4.745,1.869Z" style="fill:url(#_Linear4);"/><path d="M448.441,220.811l-29.797,-19.232l-4.744,-4.744c9.932,6.411 19.864,12.821 29.797,19.232l4.744,4.744Zm-107.578,-107.578l6.135,6.135l-29.797,-19.231l-6.135,-6.136l29.797,19.232Z" style="fill:url(#_Linear5);"/><path d="M413.9,196.835l4.744,4.744l-211.253,83.215l-4.744,-4.744l211.253,-83.215Zm-102.834,-102.834l6.135,6.136l-211.16,83.178l-6.228,-6.099l211.253,-83.215Z" style="fill:url(#_Linear6);"/><path d="M405.057,351.228l-184.079,72.51l-43.383,-93.617l29.796,-45.327l211.253,-83.215c9.932,6.411 19.865,12.821 29.797,19.232l-43.384,130.417Zm33.628,-121.556l-251.628,100.797l38.543,83.172l174.791,-68.852l38.294,-115.117Zm-22.79,-18.733l-26.222,10.33l0,11.261l-7.165,2.822l0,-11.261l-139.984,55.141l0,11.261l-7.166,2.823l0,-11.261l-25.05,9.867l-18.7,28.447l243.01,-97.345l-18.723,-12.085Z" style="fill:url(#_Linear7);"/><path d="M70.016,222.543l107.768,107.987l43.194,93.208l-107.578,-107.867l-43.384,-93.328Z" style="fill:url(#_Linear8);"/><path d="M70.016,222.543c0,0 29.797,-45.327 29.797,-45.327l6.136,6.135l-28.87,43.932l96.503,96.283l29.065,-43.516l4.744,4.744l-29.796,45.546l-101.443,-101.646l-6.136,-6.151l0,0Z" style="fill:url(#_Linear9);"/><path d="M400.391,344.789l-4.744,-4.744l-172.639,68.004l2.592,5.592l174.791,-68.852Zm-202.853,-33.44l-5.93,9.02l243.01,-97.345l-6.352,-4.1l-230.728,92.425Z" style="fill:url(#_Linear10);"/><path d="M157.371,307.392l36.843,-14.513l-20.632,30.687l-16.211,-16.174Z" style="fill:url(#_Linear11);"/></g><defs><linearGradient id="_Linear1" x1="0" y1="0" x2="1" y2="0" gradientUnits="userSpaceOnUse" gradientTransform="matrix(299.645,-199.98,199.98,299.645,87.1677,317.413)"><stop offset="0" style="stop-color:#695348;stop-opacity:1"/><stop offset="1" style="stop-color:#e4e3e8;stop-opacity:1"/></linearGradient><linearGradient id="_Linear2" x1="0" y1="0" x2="1" y2="0" gradientUnits="userSpaceOnUse" gradientTransform="matrix(166.824,-182.375,182.375,166.824,219.989,326.046)"><stop offset="0" style="stop-color:#695348;stop-opacity:1"/><stop offset="0.53" style="stop-color:#c3bcbd;stop-opacity:1"/><stop offset="1" style="stop-color:#e4e3e8;stop-opacity:1"/></linearGradient><linearGradient id="_Linear3" x1="0" y1="0" x2="1" y2="0" gradientUnits="userSpaceOnUse" gradientTransform="matrix(-336.562,-280.512,280.512,-336.562,483.541,410.039)"><stop offset="0" style="stop-color:#ffd45c;stop-opacity:1"/><stop offset="0.56" style="stop-color:#dbb252;stop-opacity:1"/><stop offset="1" style="stop-color:#4d2c2c;stop-opacity:1"/></linearGradient><linearGradient id="_Linear4" x1="0" y1="0" x2="1" y2="0" gradientUnits="userSpaceOnUse" gradientTransform="matrix(92.2281,261.826,-261.826,92.2281,347.315,169.802)"><stop offset="0" style="stop-color:#4d2c2c;stop-opacity:1"/><stop offset="0.5" style="stop-color:#d2aa50;stop-opacity:1"/><stop offset="1" style="stop-color:#ffd45c;stop-opacity:1"/></linearGradient><linearGradient id="_Linear5" x1="0" y1="0" x2="1" y2="0" gradientUnits="userSpaceOnUse" gradientTransform="matrix(159.314,-69.5609,69.5609,159.314,308.127,206.195)"><stop offset="0" style="stop-color:#ffd45c;stop-opacity:1"/><stop offset="0.46" style="stop-color:#f5b95a;stop-opacity:1"/><stop offset="1" style="stop-color:#dd7654;stop-opacity:1"/></linearGradient><linearGradient id="_Linear6" x1="0" y1="0" x2="1" y2="0" gradientUnits="userSpaceOnUse" gradientTransform="matrix(183.448,-434.964,434.964,183.448,148.133,484.502)"><stop offset="0" style="stop-color:#fff;stop-opacity:1"/><stop offset="0.5" style="stop-color:#fff4d7;stop-opacity:1"/><stop offset="1" style="stop-color:#ffd45c;stop-opacity:1"/></linearGradient><linearGradient id="_Linear7" x1="0" y1="0" x2="1" y2="0" gradientUnits="userSpaceOnUse" gradientTransform="matrix(459.106,522.135,-522.135,459.106,80.3363,-10.5517)"><stop offset="0" style="stop-color:#dd7654;stop-opacity:1"/><stop offset="0.48" style="stop-color:#f7be5a;stop-opacity:1"/><stop offset="1" style="stop-color:#ffd45c;stop-opacity:1"/></linearGradient><linearGradient id="_Linear8" x1="0" y1="0" x2="1" y2="0" gradientUnits="userSpaceOnUse" gradientTransform="matrix(111.946,-111.27,111.27,111.946,130.378,372.168)"><stop offset="0" style="stop-color:#4d2c2c;stop-opacity:1"/><stop offset="0.48" style="stop-color:#d6ad51;stop-opacity:1"/><stop offset="1" style="stop-color:#ffd45c;stop-opacity:1"/></linearGradient><linearGradient id="_Linear9" x1="0" y1="0" x2="1" y2="0" gradientUnits="userSpaceOnUse" gradientTransform="matrix(113.444,-255.014,255.014,113.444,76.1517,313.319)"><stop offset="0" style="stop-color:#ffd45c;stop-opacity:1"/><stop offset="1" style="stop-color:#fff;stop-opacity:1"/></linearGradient><linearGradient id="_Linear10" x1="0" y1="0" x2="1" y2="0" gradientUnits="userSpaceOnUse" gradientTransform="matrix(299.693,-35.8445,35.8445,299.693,148.748,301.418)"><stop offset="0" style="stop-color:#4d2c2c;stop-opacity:1"/><stop offset="0.09" style="stop-color:#8c683d;stop-opacity:1"/><stop offset="0.18" style="stop-color:#cea64f;stop-opacity:1"/><stop offset="0.42" style="stop-color:#edc357;stop-opacity:1"/><stop offset="0.67" style="stop-color:#f5dfa6;stop-opacity:1"/><stop offset="1" style="stop-color:#ffd45c;stop-opacity:1"/></linearGradient><linearGradient id="_Linear11" x1="0" y1="0" x2="1" y2="0" gradientUnits="userSpaceOnUse" gradientTransform="matrix(121.435,-28.0567,28.0567,121.435,131.938,308.589)"><stop offset="0" style="stop-color:#4d2c2c;stop-opacity:1"/><stop offset="1" style="stop-color:#9ea8b0;stop-opacity:1"/></linearGradient></defs></svg>