<?xml version="1.0" encoding="UTF-8" standalone="no"?><!DOCTYPE svg PUBLIC "-//W3C//DTD SVG 1.1//EN" "http://www.w3.org/Graphics/SVG/1.1/DTD/svg11.dtd"><svg width="100%" height="100%" viewBox="0 0 519 519" version="1.1" xmlns="http://www.w3.org/2000/svg" xmlns:xlink="http://www.w3.org/1999/xlink" xml:space="preserve" xmlns:serif="http://www.serif.com/" style="fill-rule:evenodd;clip-rule:evenodd;stroke-linejoin:round;stroke-miterlimit:2;"><rect id="palisade" x="0.107" y="0.15" width="518.4" height="518.4" style="fill:none;"/><g id="rails"><path d="M44.638,129.75l0,13.328l419.386,0l0,-13.328l-419.386,0Zm0,264.613l0,13.328l419.386,0l0,-13.328l-419.386,0Z" style="fill:url(#_Linear1);"/><path d="M44.638,129.75l0,13.328l-5.038,1.985l0,-13.329l5.038,-1.984Zm0,264.613l0,13.328l-5.038,1.985l0,-13.329l5.038,-1.984Z" style="fill:url(#_Linear2);"/><path d="M39.6,145.063l5.038,-1.985l419.386,0l-5.038,1.985l-419.386,0Zm0,264.613l5.038,-1.985l419.386,0l-5.038,1.985l-419.386,0Z" style="fill:url(#_Linear3);"/></g><g id="posts"><path d="M96.472,80.034l0,382.065l-28.284,0l0,-382.065l28.284,0Zm340.751,0l0,382.065l-28.284,0l0,-382.065l28.284,0Z" style="fill:url(#_Linear4);"/><path d="M68.188,80.034l-7.683,8.587l0,373.478l7.683,0l0,-382.065Zm340.751,0l-7.683,8.587l0,373.478l7.683,0l0,-382.065Z" style="fill:url(#_Linear5);"/></g><g id="slats"><path d="M130.633,62.937l-14.825,24.978l0,374.184l14.825,0l0,-399.162Zm47.62,0l-14.825,24.978l0,374.184l14.825,0l0,-399.162Zm47.619,0l-14.824,24.978l0,374.184l14.824,0l0,-399.162Zm47.62,0l-14.825,24.978l0,374.184l14.825,0l0,-399.162Zm47.62,0l-14.825,24.978l0,374.184l14.825,0l0,-399.162Zm47.62,0l-14.825,24.978l0,374.184l14.825,0l0,-399.162Z" style="fill:url(#_Linear6);"/><path d="M145.458,462.099l-14.825,0l0,-399.162l14.825,24.978l0,374.184Zm47.619,0l-14.824,0l0,-399.162l14.824,24.978l0,374.184Zm47.62,0l-14.825,0l0,-399.162l14.825,24.978l0,374.184Zm47.62,0l-14.825,0l0,-399.162l14.825,24.978l0,374.184Zm47.62,0l-14.825,0l0,-399.162l14.825,24.978l0,374.184Zm47.619,0l-14.824,0l0,-399.162l14.824,24.978l0,374.184Z" style="fill:url(#_Linear7);"/></g><defs><linearGradient id="_Linear1" x1="0" y1="0" x2="1" y2="0" gradientUnits="userSpaceOnUse" gradientTransform="matrix(536.941,-590.707,590.707,536.941,-25.9285,699.921)"><stop offset="0" style="stop-color:#695348;stop-opacity:1"/><stop offset="0.43" style="stop-color:#897f73;stop-opacity:1"/><stop offset="1" style="stop-color:#d3e3d6;stop-opacity:1"/></linearGradient><linearGradient id="_Linear2" x1="0" y1="0" x2="1" y2="0" gradientUnits="userSpaceOnUse" gradientTransform="matrix(117.214,-112.03,112.03,117.214,-14.7299,407.691)"><stop offset="0" style="stop-color:#4d2c2c;stop-opacity:1"/><stop offset="1" style="stop-color:#695348;stop-opacity:1"/></linearGradient><linearGradient id="_Linear3" x1="0" y1="0" x2="1" y2="0" gradientUnits="userSpaceOnUse" gradientTransform="matrix(-681.91,396.395,-396.395,-681.91,615.154,109.215)"><stop offset="0" style="stop-color:#695348;stop-opacity:1"/><stop offset="0.48" style="stop-color:#614940;stop-opacity:1"/><stop offset="1" style="stop-color:#4d2c2c;stop-opacity:1"/></linearGradient><linearGradient id="_Linear4" x1="0" y1="0" x2="1" y2="0" gradientUnits="userSpaceOnUse" gradientTransform="matrix(280.644,-836.69,836.69,280.644,68.1883,820.322)"><stop offset="0" style="stop-color:#695348;stop-opacity:1"/><stop offset="0.47" style="stop-color:#867b6f;stop-opacity:1"/><stop offset="1" style="stop-color:#d3e3d6;stop-opacity:1"/></linearGradient><linearGradient id="_Linear5" x1="0" y1="0" x2="1" y2="0" gradientUnits="userSpaceOnUse" gradientTransform="matrix(228.136,-487.44,487.44,228.136,180.803,520.946)"><stop offset="0" style="stop-color:#4d2c2c;stop-opacity:1"/><stop offset="0.5" style="stop-color:#6f5a57;stop-opacity:1"/><stop offset="1" style="stop-color:#d3e3d6;stop-opacity:1"/></linearGradient><linearGradient id="_Linear6" x1="0" y1="0" x2="1" y2="0" gradientUnits="userSpaceOnUse" gradientTransform="matrix(209.499,-486.973,486.973,209.499,130.633,518.55)"><stop offset="0" style="stop-color:#695348;stop-opacity:1"/><stop offset="0.57" style="stop-color:#b2b6aa;stop-opacity:1"/><stop offset="1" style="stop-color:#d3e3d6;stop-opacity:1"/></linearGradient><linearGradient id="_Linear7" x1="0" y1="0" x2="1" y2="0" gradientUnits="userSpaceOnUse" gradientTransform="matrix(369.034,-513.755,513.755,369.034,68.1883,544.316)"><stop offset="0" style="stop-color:#4d2c2c;stop-opacity:1"/><stop offset="0.45" style="stop-color:#75625e;stop-opacity:1"/><stop offset="1" style="stop-color:#d3e3d6;stop-opacity:1"/></linearGradient></defs></svg>