<?xml version="1.0" encoding="UTF-8" standalone="no"?><!DOCTYPE svg PUBLIC "-//W3C//DTD SVG 1.1//EN" "http://www.w3.org/Graphics/SVG/1.1/DTD/svg11.dtd"><svg width="100%" height="100%" viewBox="0 0 706 459" version="1.1" xmlns="http://www.w3.org/2000/svg" xmlns:xlink="http://www.w3.org/1999/xlink" xml:space="preserve" xmlns:serif="http://www.serif.com/" style="fill-rule:evenodd;clip-rule:evenodd;stroke-linejoin:round;stroke-miterlimit:2;"><path id="frontLeg1" d="M187.873,161.436l0,-0.002c37.384,-92.81 128.069,-173.252 224.995,-159.998c170.918,23.373 178.457,169.258 202.123,207.702c0.054,0.088 0.108,0.179 0.162,0.273c2.335,1.304 5.909,3.282 10.18,5.96c-1.516,-8.548 -2.729,-16.832 -3.693,-22.479c-6.415,-37.609 -5.998,-84.319 4.148,-84.455c7.22,-0.096 20.274,28.052 23.873,69.719c6.454,-29.719 16.672,-56.246 24.259,-54.032c7.679,2.24 12.052,39.726 -0.897,87.22c-4.203,15.418 -7.748,27.802 -11.685,36.704c5.943,8.383 10.757,18.132 13.144,29.31c8.387,39.279 6.962,56.855 14.329,73.138c5.966,13.186 27.201,37.489 10.447,43.069c-24.394,8.124 -32.516,3.932 -47.709,-22.685c-17.546,-30.741 -25.212,-22.03 -44.034,-37.853c-15.016,-12.624 -28.982,-28.454 -51.113,-38.265c-2.987,-0.959 -5.947,-1.9 -8.882,-2.822c-2.251,6.181 -4.639,12.267 -7.007,18.059c14.919,18.255 60.173,75.582 64.239,104.097c4.875,34.192 -7.634,43.98 -7.634,43.98c0,0 -29.031,4.963 -42.523,-17.113c0,0 11.13,-32.322 -37.252,-79.423c-13.905,26.737 -28.014,42.83 -52.51,54.563c-34.71,16.625 -57.136,-0.309 -57.136,-0.309c0,0 3.785,-23.29 26.395,-35.813c27.805,-15.401 32.229,-28.779 42.132,-50.662c0.079,-0.175 0.158,-0.35 0.237,-0.524l-0.237,-0.161c-13.558,-9.184 -11.647,-31.476 -12.568,-59.312l-0.005,-0.172c-28.362,-6.25 -54.758,-10.32 -80.659,-12.433c-5.212,20.631 -13.583,39.324 -18.621,48.057c-11.021,19.104 -21.197,35.944 -32.106,51.036c8.176,16.042 15.025,33.152 15.244,45.771c0.552,31.766 10.205,46.087 -15.444,49.732c-25.649,3.645 -23.641,3.828 -24.576,-19.586c-0.619,-15.519 -3.254,-27.296 -8.502,-38.232c-11.03,9.979 -23.498,19.12 -38.247,27.698c-13.652,7.94 -33.522,3.551 -39.607,-8.531c2.069,-10.765 8.673,-19.804 13.33,-23.801c6.291,-5.398 22.153,-18.111 33.025,-36.406c-43.51,-45.953 -46.766,-45.336 -43.38,-84.432c0.079,-0.919 0.165,-1.831 0.256,-2.735c-0.641,0.102 -1.284,0.205 -1.928,0.309c-2.151,0.346 -4.21,0.548 -6.18,0.614c-73.954,114.022 -216.008,145.608 -216.256,126.931c-0.26,-19.668 126.002,-27.618 181.29,-213.545c1.9,-6.388 4.115,-12.448 6.583,-18.161Z" style="fill:blue;"/></svg>